<?xml version="1.0" encoding="utf-8"?>
<!-- Generator: Adobe Illustrator 19.0.0, SVG Export Plug-In . SVG Version: 6.00 Build 0)  -->
<svg version="1.1" id="Layer_1" xmlns="http://www.w3.org/2000/svg" xmlns:xlink="http://www.w3.org/1999/xlink" x="0px" y="0px"
	 viewBox="0 0 30 30" style="enable-background:new 0 0 30 30;" xml:space="preserve">
<g>
	<g>
		<g>
			<g>
				<path d="M13.1,25c-0.3,0-0.5,0-0.7-0.1l-8-1.5C4.1,23.4,4,23.2,4,22.9l1-5.5c0,0,0-0.1,0-0.1C5.9,15.6,7.8,15,9.3,15l3.4-3.4
					c0.6-0.5,1.5-0.6,2.2,0l0.2,0.2c0.7,0.7,0.9,1.7,0.4,2.4l-2,2.5c-0.1,0.1-0.2,0.3-0.4,0.4c-0.2,0.2-0.5,0.5-0.5,0.7v0.5
					c0,0.3,0.1,0.6,0.4,0.9c0.6,0.5,1.6,0.7,2.5,0.6l2.6,0l3.5,0c0,0,0,0,0,0c0.2,0,0.4,0.1,0.5,0.4c0.1,0.2,0,0.4-0.2,0.6l-4.5,3
					C16.7,24.5,14.4,25,13.1,25z M5.1,22.6l7.5,1.4c0.8,0.2,3.6-0.4,4.1-0.9l3.2-2.1L18,21l-2.5,0c-1.1,0.2-2.4-0.2-3.2-0.8
					c-0.5-0.4-0.8-1-0.8-1.7V18c0-0.6,0.4-1.1,0.8-1.4c0.1-0.1,0.2-0.2,0.3-0.4l2-2.5c0.2-0.3,0-0.8-0.3-1.2l-0.2-0.2
					c-0.3-0.2-0.7-0.1-0.8,0.1l-3.5,3.5C9.8,15.9,9.6,16,9.5,16c-1.3,0-2.9,0.5-3.5,1.7L5.1,22.6z"/>
			</g>
			<g>
				<path d="M0.5,25C0.2,25,0,24.7,0,24.5v-9c0-0.1,0.1-0.3,0.1-0.4C0.2,15,0.4,15,0.5,15c0.7,0,4.3,0.1,5.3,1.1
					C6,16.2,6,16.4,6,16.5c-0.3,3.2-1,6.5-1,6.6c0,0.1-0.1,0.2-0.2,0.3C4.7,23.5,2.2,25,0.5,25z M1,16v7.9c1-0.2,2.4-0.9,3.1-1.3
					c0.2-0.7,0.7-3.4,0.9-6C4.2,16.3,2.4,16.1,1,16z"/>
			</g>
		</g>
	</g>
	<g>
		<path d="M19.5,15c-1.3,0-2.4-0.7-2.5-1.6c0-0.3,0.2-0.5,0.4-0.5c0.3,0,0.5,0.2,0.5,0.4c0,0.3,0.7,0.7,1.5,0.7
			c0.8,0,1.5-0.4,1.5-0.8c0-0.2-0.3-0.6-1.5-0.7l-0.1,0c-0.7-0.1-2.4-0.4-2.4-1.7c0-1,1.1-1.8,2.5-1.8c1.3,0,2.4,0.7,2.5,1.6
			c0,0.3-0.2,0.5-0.4,0.5c-0.3,0-0.5-0.2-0.5-0.4c0-0.3-0.7-0.7-1.5-0.7c-0.8,0-1.5,0.4-1.5,0.8c0,0.2,0.3,0.6,1.5,0.7
			c0,0,0.1,0,0.1,0c0.7,0.1,2.4,0.4,2.4,1.7C22,14.2,20.9,15,19.5,15z"/>
	</g>
	<g>
		<path d="M19.5,16c-0.3,0-0.5-0.2-0.5-0.5v-7C19,8.2,19.2,8,19.5,8S20,8.2,20,8.5v7C20,15.7,19.8,16,19.5,16z"/>
	</g>
	<g>
		<path d="M26.5,8h-2C24.2,8,24,7.7,24,7.5S24.2,7,24.5,7h2C26.8,7,27,7.2,27,7.5S26.8,8,26.5,8z"/>
	</g>
	<g>
		<path d="M29.5,19h-14c-0.3,0-0.5-0.2-0.5-0.5s0.2-0.5,0.5-0.5H29V6H10v5.5c0,0.3-0.2,0.5-0.5,0.5S9,11.7,9,11.5v-6
			C9,5.2,9.2,5,9.5,5h20C29.8,5,30,5.2,30,5.5v13C30,18.7,29.8,19,29.5,19z"/>
	</g>
</g>
</svg>
