<?xml version="1.0" encoding="utf-8"?>
<!-- Generator: Adobe Illustrator 19.0.0, SVG Export Plug-In . SVG Version: 6.00 Build 0)  -->
<svg version="1.1" id="Layer_1" xmlns="http://www.w3.org/2000/svg" xmlns:xlink="http://www.w3.org/1999/xlink" x="0px" y="0px"
	 viewBox="0 0 30 30" style="enable-background:new 0 0 30 30;" xml:space="preserve">
<g>
	<g>
		<path d="M29.5,20h-13c-0.3,0-0.5-0.2-0.5-0.5s0.2-0.5,0.5-0.5H29V2H2v12.5C2,14.8,1.8,15,1.5,15S1,14.8,1,14.5v-13
			C1,1.2,1.2,1,1.5,1h28C29.8,1,30,1.2,30,1.5v18C30,19.8,29.8,20,29.5,20z"/>
	</g>
	<g>
		<g>
			<path d="M15.5,15c-1.6,0-3.4-0.9-3.5-2.3c0-0.3,0.2-0.5,0.5-0.5c0.3,0,0.5,0.2,0.5,0.5c0.1,0.7,1.3,1.4,2.5,1.4
				c1.1,0,2-0.6,2-1.5c0-1-1.1-1.3-2-1.5L15.2,11c-0.8-0.1-3.2-0.6-3.2-2.5C12,7,13.8,6,15.5,6c1.6,0,2.9,1.1,3,2.5
				C18.5,8.7,18.3,9,18,9c-0.3,0-0.5-0.2-0.5-0.5c-0.1-0.8-0.8-1.5-2-1.5C14.2,7,13,7.7,13,8.5c0,1.1,1.8,1.4,2.4,1.5l0.3,0.1
				c1.9,0.4,2.8,1.2,2.8,2.5C18.5,13.9,17.2,15,15.5,15z"/>
		</g>
		<g>
			<path d="M15.5,16c-0.3,0-0.5-0.2-0.5-0.5v-10C15,5.2,15.2,5,15.5,5S16,5.2,16,5.5v10C16,15.8,15.8,16,15.5,16z"/>
		</g>
	</g>
	<g>
		<path d="M26.5,5h-2C24.2,5,24,4.8,24,4.5S24.2,4,24.5,4h2C26.8,4,27,4.2,27,4.5S26.8,5,26.5,5z"/>
	</g>
	<g>
		<path d="M6.5,25c-1.4,0-2.4-0.6-2.5-1.4C4,23.3,4.2,23,4.4,23C4.7,23,5,23.2,5,23.4C5,23.7,5.6,24,6.5,24C7.3,24,8,23.6,8,23.2
			c0-0.2-0.3-0.6-1.5-0.7l-0.1,0C5.8,22.4,4,22.1,4,20.8c0-1,1.1-1.8,2.5-1.8c1.4,0,2.4,0.6,2.5,1.4C9,20.7,8.8,21,8.6,21
			C8.3,21,8,20.8,8,20.5C8,20.3,7.4,20,6.5,20C5.7,20,5,20.4,5,20.8c0,0.2,0.3,0.6,1.5,0.7c0,0,0.1,0,0.1,0C7.3,21.6,9,21.9,9,23.3
			C9,24.2,7.9,25,6.5,25z"/>
	</g>
	<g>
		<path d="M6.5,26C6.2,26,6,25.8,6,25.5v-7C6,18.2,6.2,18,6.5,18S7,18.2,7,18.5v7C7,25.8,6.8,26,6.5,26z"/>
	</g>
	<g>
		<path d="M7,29c-3.9,0-7-3.1-7-7s3.1-7,7-7s7,3.1,7,7S10.9,29,7,29z M7,16c-3.3,0-6,2.7-6,6s2.7,6,6,6s6-2.7,6-6S10.3,16,7,16z"/>
	</g>
</g>
</svg>
