<?xml version="1.0" encoding="utf-8"?>
<!-- Generator: Adobe Illustrator 19.0.0, SVG Export Plug-In . SVG Version: 6.00 Build 0)  -->
<svg version="1.1" id="Layer_1" xmlns="http://www.w3.org/2000/svg" xmlns:xlink="http://www.w3.org/1999/xlink" x="0px" y="0px"
	 viewBox="0 0 30 30" style="enable-background:new 0 0 30 30;" xml:space="preserve">
<g>
	<g>
		<path d="M2.5,30C2.2,30,2,29.8,2,29.5v-29C2,0.2,2.2,0,2.5,0S3,0.2,3,0.5v29C3,29.8,2.8,30,2.5,30z"/>
	</g>
	<g>
		<path d="M29.5,28h-29C0.2,28,0,27.8,0,27.5S0.2,27,0.5,27h29c0.3,0,0.5,0.2,0.5,0.5S29.8,28,29.5,28z"/>
	</g>
	<g>
		<path d="M9.5,25C9.2,25,9,24.8,9,24.5v-1C9,23.2,9.2,23,9.5,23s0.5,0.2,0.5,0.5v1C10,24.8,9.8,25,9.5,25z"/>
	</g>
	<g>
		<path d="M17.5,25c-0.3,0-0.5-0.2-0.5-0.5v-9c0-0.3,0.2-0.5,0.5-0.5s0.5,0.2,0.5,0.5v9C18,24.8,17.8,25,17.5,25z"/>
	</g>
	<g>
		<path d="M26.5,25c-0.3,0-0.5-0.2-0.5-0.5V11c0-0.3,0.2-0.5,0.5-0.5S27,10.7,27,11v13.5C27,24.8,26.8,25,26.5,25z"/>
	</g>
	<g>
		<path d="M9,21c-1.7,0-3-1.3-3-3s1.3-3,3-3s3,1.3,3,3S10.7,21,9,21z M9,16c-1.1,0-2,0.9-2,2s0.9,2,2,2s2-0.9,2-2S10.1,16,9,16z"/>
	</g>
	<g>
		<path d="M17,13c-1.7,0-3-1.3-3-3s1.3-3,3-3s3,1.3,3,3S18.7,13,17,13z M17,8c-1.1,0-2,0.9-2,2s0.9,2,2,2s2-0.9,2-2S18.1,8,17,8z"/>
	</g>
	<g>
		<path d="M26,8c-1.7,0-3-1.3-3-3s1.3-3,3-3s3,1.3,3,3S27.7,8,26,8z M26,3c-1.1,0-2,0.9-2,2s0.9,2,2,2s2-0.9,2-2S27.1,3,26,3z"/>
	</g>
	<g>
		<path d="M11,16.5c-0.1,0-0.3,0-0.4-0.1c-0.2-0.2-0.2-0.5,0-0.7l4-4c0.2-0.2,0.5-0.2,0.7,0s0.2,0.5,0,0.7l-4,4
			C11.3,16.5,11.1,16.5,11,16.5z"/>
	</g>
	<g>
		<path d="M19.5,9.5c-0.2,0-0.3-0.1-0.4-0.2C18.9,9,19,8.7,19.2,8.6l4-2.5c0.2-0.1,0.5-0.1,0.7,0.2c0.1,0.2,0.1,0.5-0.2,0.7l-4,2.5
			C19.7,9.5,19.6,9.5,19.5,9.5z"/>
	</g>
</g>
</svg>
