<?xml version="1.0" encoding="utf-8"?>
<!-- Generator: Adobe Illustrator 18.0.0, SVG Export Plug-In . SVG Version: 6.00 Build 0)  -->
<!DOCTYPE svg PUBLIC "-//W3C//DTD SVG 1.1//EN" "http://www.w3.org/Graphics/SVG/1.1/DTD/svg11.dtd">
<svg version="1.1" id="Layer_1" xmlns="http://www.w3.org/2000/svg" xmlns:xlink="http://www.w3.org/1999/xlink" x="0px" y="0px"
	 viewBox="0 0 1173.9 579.6" enable-background="new 0 0 1173.9 579.6" xml:space="preserve">
<path fill="#D9E0E3" d="M1173.4,495.4c-1.2,1.4-2.8,2.3-4.7,2.6l0,2.6c-1.5,2.1-3.2,4.1-5,6c-1.4-1.8-2-3.9-1.9-6.2l-2.4-1.3l-0.5-2
	c1.5-1.4,2.4-3.1,2.8-5.1c-0.8-2.6-2.1-5.2-3.9-7.3l0.9,1.5c-2-2.2-3.4-4.7-4.9-7.2l1.4-0.1l0.4,1.6c3.4,0.9,4.5,4.1,6,7l-0.1,1.1
	l2.5,1.3l-0.3-1.8c1.2,2.3,3,4,5.5,5l3.4-1.4L1173.4,495.4L1173.4,495.4L1173.4,495.4z M1156.1,506.2l3.1,0.1l0.1,1.4
	c-1.1,2-2.5,3.8-4.4,5.2l0.4,2.7c-2.4,0.4-4.5,0.9-6.7,1.8l0.6,2.8l-1.7-0.3l0.8,1.7l-1.6,3.4l-5.4,2.4l-5.2-1.9l-2,0.4l-0.5-1.4
	l0.4-1l1.1,0.4c4.8-8.4,15.2-10.5,18.3-20.6L1156.1,506.2L1156.1,506.2L1156.1,506.2z M613.5,200.1c-6.6-1.3-8-4.2-12.5-8.4
	c0.6-2,0.6-4.1,0.1-6.1c-2.9-2.4-6.1-4.4-9.3-6.5L590,179l-3.1-3.1l1.2-0.1l-3.9-4.4l-1.5,2.3l-1.2-2.9l0.5-1h-1.8l-3.2,2.1l0.8,1
	l-0.5,1.3c2.5,3.8,5.7,7,8.3,10.7l3.7,0.5l0.4,2c2.6,1,5.2,2.2,7.4,4l0.7,2.6c-1.2-1.1-2.4-2-3.9-2.9l-2,1.9l1.9,2.4l0.1,1.5
	l-1.5,0.6l-1.3,2.1l-2.5,1.3l1.9-2.8l-1.6-4.7c-1.7-0.7-3.2-1.6-4.6-2.7l0.5-0.4c-7.4-3.8-12.6-9-18.3-14.9c-4,1.3-7.5,3.7-11.1,5.7
	c-1.4-1.1-3-1.5-4.8-1.4l-4,3l0.3,2.3c-2.2,2-7.9,5.5-7.9,5.5l-2.5,2.1l0.3,5.3l-3.4,4.3l-2.3,0.8l-1.9,2.4
	c-4.1,1.2-8.3-0.3-11.5,3.1l-1.8-0.4l-1.9-3.1c-2.7-0.2-5.4-0.3-8-0.1c0.4-2,0.5-3.9,0.5-5.9l-1.5-0.4l-0.8-0.6
	c1.8-4.8,2.1-9.6,2.9-14.4l-1.9-1.9c6.5-5.5,17.7-1.8,25.5-2.7l1.7-4.5l-0.7-0.1l0.6-3.5l-0.2-3.3c-1.4-1.7-2.8-3.5-4.2-5.2
	l-1.3,0.1c-1.9-1.1-4-2-6.2-2.5c0.3-0.6,0.7-1,1.2-1.4l-1.5,0.2l4-1.6c2.4,0.4,4.7,0.4,7.1,0.1c0-1.6-0.5-3.1-1.5-4.4h2.3l1.7,1.4
	l3.4-0.3c3.4-3.5,6.3-8.1,11.6-8.5l-0.8-0.8c2-1.3,3.3-3.1,3.9-5.5l1.9,0.6c-0.5,0.5-0.8,1.1-0.9,1.8c0,0,1.9-2.7,1.3-3.4
	c1.2-1,2.6-1.5,4.2-1.6l1.2,0l2.5-1.1l1.6,0.3l1.1,0.4l1.9-1.5c-0.4-0.6-1.8-2.2-1.8-2.2c0.3-2-1.8-5.5-1.8-5.5l0.7-2.1l-0.4-1.9
	c1.2-0.2,2.2-0.8,2.9-1.7l0.9,0.8l1-1.9l2.1,0.3l1.2,1.8l-0.2,2.1c-1.1,0.4-2.1,1.1-2.8,2l-0.8,3l1.5,2.4l2.1,0.7l0.7,1.5l2.4,0.3
	c1.5-0.9,3.2-1.6,4.9-2c1.7,1.3,3.5,2.5,5.3,3.6l1.6-1.9c3.5-1.4,7.2-2.4,10.9-3.4l1.8,2.1c2.9-0.8,5.3-2.4,8.1-3.3
	c0.1-2.3-0.2-4.8-0.9-7c0.7-1.1,1.1-2.2,1.4-3.4l4.2-2.1c1.1,1,2,2.1,2.7,3.4l3-2.1l0.6-4.3l-1.3,0.5c-0.5-1.3-1.3-2.5-2.3-3.5
	l0.9-1.5c5.3-2,9.8-0.3,15-1.2l-0.6-1.8c1.8-0.3,3.6-0.5,5.4-0.7l-0.7-1.6l-2.1-0.2l-0.8-2.2L628,103l-2.9-0.9
	c-0.5,0.9-1.3,1.6-2.3,2c-2.1-0.2-4.3,0.2-6.3,0.9l-3.3-1.4l-2,0.4c-0.8-0.8-1.6-1.4-2.6-2c0.2-4.8-3-8.9-0.4-13.5l2.8-0.8l0.9-2.2
	l1.7-0.3c2.2-2.5,4.6-4.7,7.4-6.4l-0.4-2.5c-2.5-1.7-5.6-2.6-8.6-2.8c-2.4,1.9-4.1,4.2-5.8,6.6l0.8,2.4c-1.1,2.4-3.1,3.9-5.7,4.2
	c-2.3,2-5.1,3.2-7.2,5.5c-0.6,2.8-0.7,5.8-0.2,8.7c2.4,1.1,4.6,3,6,5.2c-2.6,1.7-5.8,2.1-8.8,1.3c2.2,0.9,4.4,1.1,6.7,0.6
	c-0.8,0.4-1.5,0.7-2.3,1.1l-0.9,1.6c-1.1,0.3-2.3,0.6-3.4,0.9l1.1,2.3c-1.5,3.3-2.3,6.8-3.3,10.2c-1.6-0.1-3.3,0.1-4.9,0.5l-0.2,1.8
	l-4.9,0.8l0-2.1l-1.3-2l0.7-0.9c-1.3-2.8-3.4-5.3-3.9-8.5l-0.7-0.5c0.1-1-0.1-2-0.7-2.8l0.4-1.3l-1.5-0.3l-0.4-1.9
	c-2.6,3.6-6.4,6.2-10.6,7.9c-1.8-0.5-3.6-1.2-5.3-2l-1.6-6.5l-0.8-2.7l-0.3-1.9l0.2-4.1l1.3-3.5l2.8-0.9l1-1.6l3.1-0.1l-1.5-1.7
	l3.9,0.4c2.5-2.8,5.2-5.5,8-8.1l2.3-0.4c0.9-1.7,2.3-2.9,4.1-3.6l-0.8-1.8c0.9-1.9,2.3-3.3,4.3-4.1l-1.5-1.6l2.8-1.2l-0.7-1.3
	c3.3-1.2,5.4-3.9,8.1-6l1,0.4l0.3-2.6c1.9-2.1,3.9-4,5.9-6.1c1.6,0.6,3.2,0.6,4.8,0.1l1.7-2.5c0,0,2.4-0.2,3.9-1.5l7.5-2.4
	c2.4-1.1,4.8-2,7.3-2.9c0,0,0.8,1.3,2.6-0.2l4.2-0.5l2.8,1.3l4.6,1.5l1.4,2.2l-5.7,0.4c2,1.8,4.7,2.7,7.4,2.8l3.7-1.8
	c0,0,20,9.3,29.8,13.6l0.9,2.8l-2.1,3.5c-10.5,0.5-18.1,0.9-27.9-3c2.6,2.4,5.3,4.6,8.2,6.5l-1.2,2.9l1.6,4.3c3.1,2,6.5,4,10.3,3.4
	l0.2-1.6l-2.5-0.8l-1.8-3.1c4.1,0.5,8.4,2.3,12.5,1.6c-0.5-1.9-0.8-3.8-0.9-5.7c2.8-1.2,5.5-2.6,8.1-4.1l5,2l0.9-5.2
	c-0.6-0.7-1.3-1.4-1.9-2.1l1.5-4.4l-1.1-2.2l4.2,0.2l5.2,4.2l-5.3,2.8l7.7,2.2c2.9-5.2,13-10.2,18.7-9.6l3.2-1.8l-0.9,2.8l0.5,1.3
	l3,0l1.6-1.6c4.9-0.1,9.5-3,14.3-2l-0.1,2.3c1.7-1.1,3.4-2,5.2-2.7l-1.3-4.5c8.3-2.9,18.4,3,25.1,7.4l3.5-3.2L765,56l-0.8-3
	l-4.1-2.3l2-2.8c-0.9-1.5-1.5-3.1-1.9-4.8c5-2.1,5.5-7.3,9.1-10.8c3.8-0.1,7.4,0.6,11.2,1.2c-1.1,2.6-2.1,5.3-2.9,7.9l2.7,4.9
	c-1.2,2.8-1.2,5.9-1,9l2.9,3.4c-1,3.1-2.5,5.8-5.3,7.6l-0.9,2.3c-2.7,0.3-5.5,0.3-8.2,0.1c2.8,1.7,5.8,2.8,9,2.9
	c4.6-2.1,6.2-5.6,9.9-8.6l-1.2-3.6l8.1-1.6l4.1,6.8l1.7-0.9l-3.6-1.1l1.8-2.2l-1.1-3.3c-4.3-2.5-7.9-2.8-12.7-3.2L783,51l1.5-3.2
	l-2.2-5.9c2.7-2.3,4.3-5.7,5.3-9l2.1,1.3c-0.4,2.5-0.5,5.1-0.4,7.7c3.5,1.1,7,1.3,10.3,2.7l-1.6-3.3l-4.7-0.8l-1.4-1.2
	c6.8-3.7,14.8-1.3,21.8,0.4l-2.2,3.8l0,4l2.1-2.6l0.7,3.3c0.6-3,1-6,1.1-9c-1.5-0.6-2.8-1.7-3.5-3.1c-1.5-0.3-3-0.9-4.4-1.6
	c-0.1-2.1-0.7-4-1.8-5.8c7.1-1.4,13.8-2.2,21-2.7l-2,2.2l4.8-2.4l-2.6-4.1c8.7-11.2,30-11.8,43-10.7l2.4-2.9l2.6-0.7l0.2-1.8l8-5.3
	l5.1,0.2l-2,3.7c3.1,0.1,6.2,0.4,9.3,0.8l-2.8,3.2l3.4,0.2l2.8-1.7c7,0.2,10.5,2.5,16.9,3.9l1.4,1.5l-2,2.5L917,16
	c-9.3,5.2-19.8,10-27.9,16.6c4.8-2.7,11.2-3.4,16.5-4.9l0.1-2.7c2.7,1.3,5.9,1.7,8.8,1.1l2.2,3.6l2.1-2.3c4.8-1,9.7-0.1,14.4,0.2
	l1,3.3c4.5,1.3,9,0.1,13.4,1.5c1.4-2.2,3-4.2,4.7-6.1c5,1.4,9.7,3.1,14.4,5c-2.8,0.9-5.5,2.1-7.8,3.8c6.1,2.3,11.9,5.8,17.8,8.6
	l4-5.3l6,3.2l6.1-1.3c0,0,6.7,0.1,8-0.9l3.8-3.7l-2.9,0.1c9-2.4,12.4-3.1,22.3-1.5l-2.5,1.8l3.2,0.5l3.7-0.9l9.4,1.9l-3.4,1.8l7.3,2
	l3.5,3.7c8.6-1,14.8-1.4,23.4,0.2l2.1,4.3l3.7,2.2l0.7,2.8c2.5-2.5,5.9-2.9,9.3-3.4c4.1,2.6,6.9,0,11.1,0.7c3.3,0.6,5.7,3.2,8.7,4.7
	l4.2-1.1l-2.6-4.1l1.4-2.3c10.1,0.7,22.6,0.8,31.4,6.6c0,6.5,0,13.1,0.1,19.6l-2.6,3.6c-1.8,1-3.6,1.3-5.5,0.9l-1-1.6l-1.8,0.7
	l-2-0.6l-0.1,2c1.9-0.1,3.6,0.6,4.8,2.1c1.1,0.2,2.1,0.6,3,1.4l-0.5,2.4l2.8,3.5l1.2-0.2l-2.5,2.5l-4.7-1.8c-3.7,3-8.1,3.6-12.2,5.6
	c-4.5,2.3-8.2,6-13.1,7.8l-4-1.9c-3,0.4-5.8,1.6-7.9,3.8l0.5-3.2c-1.8,0.4-3.3,1.4-4.4,3l-1.7-0.7c-1.6,0-2.9,0.5-4.1,1.5l0.1,1.3
	c-1.5,1.8-2.9,3.7-4.3,5.7l1.7,2.2l2.3,0.9l-1.7,2l1.8,2.6l-0.7,3.1l-0.7-2c-2,5.2-2.8,9.5-9.1,10.4l-1,1.9l0.7,2.3l-3.2,1.2
	c-2.1,3.3-4.8,6-7.4,8.9c-2.5-10-6.7-21.6,0.3-30.6c6.4-3.4,13.1-7.6,17.4-13.7l3.3-1.1l3-3.3c-0.2-1.4,0-2.8,0.5-4.2l4.4-1.4
	l-17.7,8.8c0.8-1.9-19,2.9-20.4,5.1l3.3,2.3c-4.2,1-8.7,0.9-13.1,1.5l2.9-1.2c0,0-5.7-1.8-7.1-2.7c-1.7,0.3-3.2,1.2-4.3,2.5
	c-6-1.3-12.4-0.5-18.5-0.9c-9,5.9-19.6,13.9-26.8,22.1l5.2,1l3.1,3l3.5-1.4l5.7,1.5c5.6,5.4,1.2,21.4-3,26.9
	c-5.4,7.2-11.8,18-20.7,20.7c-0.9-0.4-1.8-0.9-2.6-1.5l-2,0.2l0.5-1c-2.5,2.2-7.3,9-7.3,9c-1.7,2.3-3.9,4.2-6.6,5
	c0.4,5.9,5.7,9,6.2,15.1l-1.8,3.4c-3,0.3-5.5,1.7-8.5,2.8c0.6-3.4,0.7-6.6-1.5-9.3c0.8-0.7,1.7-1.2,2.7-1.4l-1-1.8
	c-1.3,0-2.7,0.1-4,0.2l-1.9-2.5l2-2.1l-0.5-3.4l-3.4-1.4c-3.7,0.7-7,2.5-10.2,4.4l2-2.2l-1.4-0.8l2.7-3.8l-2.1-1.3
	c-3.6,2.4-6.8,5.5-10.7,7.2l-1.7-0.6l1.2,4.1l2.6,1.4l1,2.6l4.1-2.5c2.1,1,4.3,1.6,6.7,1.6l-0.4,2.1l-4.7,0.5l-3.3,1.8l-2.9,4.9
	c3.1,2,7,9.9,7,9.9c0.5,1.9,0.6,3.9,0.4,5.9l-4.3,1.9c2.1-0.2,4.1,0.1,6.1,0.9l-0.4,1.8l-1.4,3.9c0,0-3.7,5-6,6.4l0,2.9
	c-1.1,1.3-5.8,5.8-6.1,6.6c-4.1,2.4-9,6.7-14,3.9c-2.6,4.6-7.6,3.6-11.2,6.6l0.3,1.9c-1.3-2.3-3.2-4.1-5.6-5.3
	c-0.8,0.9-3.7,3.1-3.7,3.1c-3.5,1.3-5.2,4.4-5.5,8.1c5,8.2,13.1,12.8,11.1,24c-2,2-4.8,3-7.7,3.4c-0.1,1.1-0.3,2.2-0.6,3.3
	c-2.2,1.1-4.4,2.5-6.3,4c0.5-2-4.1-6.9-4.1-6.9l-7.5-6.9l-1.2-3l-3.2,1.3c-0.4,4.3-3.1,8.2-2.8,12.4l2.3,0.4c1,2.3,1.8,4.7,2.3,7.1
	c3.3,1.3,5.8,3.9,8.3,6.4c1.3,4.4,1.1,9.1,4,12.8c-3.5-0.5-6.6-2.2-9.3-4.3c-0.4-1.9-1.3-3.5-2.7-4.8c-0.2-3.1-1-6.4-3.2-8.6
	c0,0-3.3-3.7-4.6-5c0.8-9.5,2.8-23.4-5-31.2l-2.1,3.2l-3.1,1.5l-1.4-0.7l-2.3,0.5c1.6-3.8,0.3-7-0.5-10.8l-1.8-0.1l-9.6-13.3
	l0.1,3.2l-5.3,1.9l-6.4,0.7c-2.1,7-17.2,17.6-23.6,21.3c0.1,5.6,0.2,9.7-1,15.2c-1.3,0.9-2.2,2.1-2.5,3.5l0.4,1.5
	c-2,0.8-3.6,2-4.8,3.8c-6.8-8.7-20.4-31.7-15.4-43l-1.3-5l-2.2,3.5l-4.3,1.6l-6.3-5.8l5-2l-5.3-0.6c-1.2-1.3-5.8-6.3-7.2-7.5
	c-3.1-1-6.3-0.4-9.4-0.8c-7.3,1.9-15,0.7-22.1-1.5c-0.7-1.6-1.5-3.2-2.5-4.7l-5.2,1.9c-10.6-1-11.2-11.2-19.2-14.2
	c-1.8,1.5-3.5,3-5.3,4.4c0,0,2.9,3.6,3.7,5.4c1.7,1,3.2,2.3,4.6,3.7l-0.5,0.9c0.6,2.1,4.2,1.6,4.2,1.6c0.3,2.4,0.7,4.9,1.2,7.3
	c2.8,0,5.5-0.4,8.2-0.6c2.6-2.5,5.6-4.5,7.9-7.3l-0.7,2.6l1.1,3.2c3.2,3.5,7.9,4,10.8,7.7c-2.1,4.2-5.4,7.6-7.2,12
	c-3.7,1.2-5.5,5.2-9.1,6.2c-4.1,1.1-8.4,2.1-10.5,6.1c-8.2,1.9-18.5,10.3-26.9,9.1c-3.9-11.6-6.3-20.2-15.3-29.2
	c0.3-5-2.2-9.8-6.6-12.2c-1-5-5.1-8.6-8.2-12.3l1.1-4.7c-1.4-2.2-2.3-4.7-2.6-7.3c1.4-4,3.4-7.7,5.3-11.5l-0.9-3.8l1.1-3.6l-0.8-1
	c-3.4,0.2-6.4,1.6-9.6,2.6c-2.2-1.7-4.9-2.7-7.6-3.1l-1.5,2.4l-2.2,0.1l-1.6-2.2c-1.2-0.1-2.4-0.1-3.6,0c-0.6-1.1-1.5-2-2.6-2.8
	l-0.1-1.9l-2.2-2.1l0.9-0.6l0.1-1.3l-0.6-1.2l-1.8-0.8l5.5-3.9c1.5,0.4,3.7-0.2,3.7-0.2l3.5-1l-2.2-0.5l1-1.2c1.7-0.2,3.3,0,4.9,0.5
	c3.9-2.6,9-4.2,13.6-4l3.4,1.5l0.9,1.4c5.6,1.5,10,0.9,15.8,0.8l0.5-7.1c-4.9-1.5-7.1-6.4-12.3-7.5l-1.8-2.3l3.4-3.2l-0.7-2.4
	l4.7-2.8c-5.9,1.3-11.9,4.4-17.8,4.9c2.2,2.4,5.5,4.2,8.8,3.4c-2.7,1.3-5.6,2.1-8.2,3.5l-2.2-0.1l0.4-2l-3.5-1.6l2.9-1.5l-4.3-2.1
	l-0.4-2.4c-3.2,0.6-5.4,3.1-7.8,4.8c-0.3,0.8-0.3,1.7-0.1,2.5l-2.6,1.8c-1.4,3.2-2.8,6.3-3.7,9.6c0.9,1.9,2.4,3.1,4.3,3.8l-1.5,1.3
	c-2.9,0-5.6,1.7-7.8,3.6c0,0-5.1-4.2-8.6-2.5l2.2,2.4l-2.2,0.9l-2.9-2.3l-0.9,0.1c0.3,1.9,1,3.8,1.9,5.5l-0.7,0.4l-1.2,0.6l4.7,2.6
	l-0.2,2l-3.2-1 M717.9,186.7l-2.2-2.4l-1.9,3.7c-0.8-1.7-1-3.4-0.8-5.3c-3-2.2-5-4.9-7.6-7.4l0.5-1.3l3.1,0.2l-1.5-1.2l1.1-1.5
	l6.1-0.4l-1.1-0.7c0.7-1.6,1.1-3.2,1.3-4.9c-2.3-0.9-4.7-1.5-7.1-1.7c-4.1,1.6-7.5,5.2-12,5.7c-0.5,1.8-1.4,3.4-2.7,4.7l1.6,1.4
	l1.5,1.5c-1.3,4.8,5.1,12.5,9.3,14.6l-2.6,0.3c0,1.7-0.5,3.3-1.4,4.6l-1.5,4.9c4.4,3.4,11.8,5.6,17.2,3.8c-0.2-2.6,0-5.3,0.4-7.9
	l-2.8-1.9l1.9-0.9l-0.4-1.8l-2.7-1.3l0.7-3.1c1.2,0.3,2.3,0.8,3.2,1.5l1.1-0.9L717.9,186.7L717.9,186.7L717.9,186.7z M537.2,145
	l3.2,0.4l-1.2,2.1c-4.8,0.8-9.9,1.6-14.8,1.2l-0.6,1.6l-2.3-0.3l-3.1,1.7l-1.6-0.8c1.8-0.8,3.1-2.1,4.1-3.8c1.6-0.9,3.3-1.1,5-0.9
	l1-2c-2.8,0.8-5.8,0.3-8.4-0.9l3.3-1.9l0.5-1.8l-1.7-0.7l5.6-2l0.1-4.2l-1.9-0.3l0.9-2.7c-2.2,0.4-4.4,0.5-6.6,0.3l1.4-3.2l-0.6-1.5
	l0.7-1.6l-3,1.8c0-1.4,0.1-2.8,0.1-4.2l-1.7,0.7c0.8-2.2,1.8-4.1,3.2-6l-0.9-1.8l1.4-0.4v-1.9l1.9,0.9l4.1-0.6l-3.6,4.4l7.4,0.6
	l-3.6,5.5l1.2,0.8l-3.7,0.9l4.9,0.6l2.2,1.8l0.9,3.1l2.7,1.9c1.2,2.3,2,4.8,2.3,7.4l5.5,1.5L537.2,145L537.2,145L537.2,145z
	 M517,125.9l0.6-0.1L517,125.9L517,125.9L517,125.9z M517.2,132.1l-2.6,1.8l1.5,3.9l-2.1,3.8c-3.6,1.1-7,2.6-10.6,3.5l-1.4-1.5
	l0.7-1.4l-1.6-0.1l2.2-0.7c0.6-0.9,1.4-1.5,2.3-2l-1.6,0.2l0.4-1.2l1.9-1.1l-4.2-1l0.1-0.9l1.5-1.4l-1.6-0.1l5.3-1.4l1.3-2h-2.1
	c0.9-0.6,1.6-1.4,2.1-2.3c2.3,0.4,4.6,0.4,6.9-0.1L517.2,132.1L517.2,132.1L517.2,132.1z M587.3,204.6l-2,0.8
	c-2.6-0.9-5-2.6-6.7-4.8c3-0.1,6.3,0.2,9.4-0.5c-0.6,0.9-1,1.8-1.2,2.9L587.3,204.6L587.3,204.6L587.3,204.6z M503.1,225.9
	c1.4-1.4,2.1-3,2.1-4.9c2.5-2.4,5.4-4.3,8.5-6c0.6-2.2,1.7-4.3,3.2-6c2.6,1.9,5.7,2.7,8.8,1.9l1.2,0.7c3.1-1,5.7-2.4,8.8-2.3
	c7.4-4.9,16.8-3.2,25.2-5l1.6,1.1l5-1.9l2.8,1.4l2.8-0.6c-0.3,3.7-1.4,7.3-2.9,10.7l1.2,2.7l2,0l1.2,1.5c5.5,1.2,11.8,2,15,7.1
	c3.8,1.2,7.7,2.4,11.6,3.4c2.1-2.3,3.5-5.1,4.3-8.1l7.6,0.2c1.9,1.5,4.1,2.3,6.5,2.3l0.8,1.4c4.4-0.1,9,0.8,13,2.6l4.3-2.1
	c4.3,0.1,9.2,0.6,13.2,1.5c0.7,1.9,1.5,3.8,2.2,5.6c-1.1,1.8-1.8,3.8-2.1,5.8l-5.5-7.5c-1.2,9.1,10.4,16.1,10.8,25.3l3.4,3.6
	l1.3,9.3c4.6,4.6,6.1,7.8,8.4,13.9l0.4-1.3c2.9,3.5,7.6,6.9,11.3,9.8l-2.2,3.2c2.5,0.8,4.6,2.3,6.5,4.2l4.8-1.4l1.5,0.5l3.1-1.7
	l2.2,0.2c2.8-0.8,5.8-0.7,8.2-2.4l2.4,0.2c-1.4,11.1-8.2,21.1-15.5,29.4c-6.4,7.3-21.9,14.2-23.3,24.9c-4.2,3.9-0.9,12.9,0,18
	l2.9,2.8c-0.9,4-0.6,10.3,1.2,14l-5.4,7.4c-6.5,2.8-12.1,6.2-14.7,13.3c2.8,4.4,1,8,1.8,12.6c-3,2.8-7.1,3.2-9.7,6.4l1.4,1.7
	c-1.8,14.1-16.3,24.1-28.4,28.6l-2.5-1c-1.6,0.6-3.2,0.8-4.9,0.5l-2.6,1.5c-2.4-0.2-4.9,0-7.3,0.5c-0.8-0.7-1.8-1.1-2.8-1.2
	c0-1.9-0.6-3.7-1.8-5.2c0.6-0.6,1.1-1.4,1.3-2.2c-2.5-7.9-7.8-13.7-10.8-21.2l0.2-1.2c-1.3-4.3-2.9-9.9-2.5-14.6
	c-4.3-7.3-9.1-13.5-8.7-22.1c2.4-3.8,1.9-8.5,5.6-11.3c1.7-3.8,1.1-7.5-1.2-10.8l1.1-2.5c-4-8.8-7.4-14.8-13.7-22.2l0.3-1.4
	l-1.6-2.7c0.7-1.2,1.7-2.1,2.9-2.9l-1.7-1.5c0.4-3.8,2.2-7.1,1.4-11.1c-1.8-0.8-3.5-1.8-5-3.1c-2.6,0.7-5.4,1.1-8.1,1l-1.3-3.5
	l-1-0.4c-0.7-1.1-1.7-2-2.9-2.6c-6.8-0.1-14.3,2.1-20.3,5.2c-1.3,0-2.6-0.4-3.6-1.2c-6.1,0.1-11,0.8-17,2.4c-6-4-12.8-7.7-17.7-13.1
	l0.9-0.9c-1.9-3.6-5.2-6.3-8.2-8.8l0.9-1.9l-3.9-1.5l-1.5-1.9c0.1-1.2,0.3-2.3,0.5-3.5l-2.8-3.4c3.9-3,6.3-11.7,3.2-15.7l0.6-1.5
	l-2.4-3.4c1.4-5.3,5-14.5,8.7-18.4c5-5.3,12-8.8,15.9-14.7L503.1,225.9L503.1,225.9L503.1,225.9z M296.2,110.1l-1.8,1.3l-3.8-0.5
	l-3.4-2.8l-2.3,0.3l-1.3,2l-5.2,2.6l-0.4-2.8l-5.1,0.9c0.6-1.3,1.5-2.2,2.7-2.8c0.5-3.3,1.5-6.5,2.4-9.7l1.3,2.8
	c4.7,0.8,10,3.5,12.8,7.5C293.5,109.2,294.9,109.7,296.2,110.1L296.2,110.1z M310.7,231.1L310.7,231.1L310.7,231.1L310.7,231.1z
	 M252.9,66.1l0.3,3.1c1.9,1.1,3.2,2.7,4,4.8l-2.8,2.3c2.4,0.5,4.8,1,7.1,1.5c-0.6,2.3-0.3,4.6,0.6,6.8l7-3.7l1.3,2.6l-2,1.8l2,4.1
	l3.9,1c0.7-1.6,1.8-2.9,3-4.1l0.6-2.9l3.2-1.3c-1.1-1.7-2-3.5-2.6-5.5c3.9-0.3,7.9-0.1,10.8,2.7l1.8,0.1l-0.6,4l-2-1.4l3.3,7
	l-2.2,4.8l-5,1l-4.7-2.2c1.6,0.9,3,2.2,4.2,3.6c-3.3-1.1-7-1.4-10.4-0.8l2.9,1.6l-5.5,4.4c-2.5-1.4-5.2-2.6-8-3.5l-2.8,0.5
	c4,2,8.1,3.3,12.3,4.6l-2.9,4.6l-6.5,0.2l0.3,3.3c-3.9-0.5-7.6-1.3-11.5-2.1c2.8,1.7,5.8,3.1,8.9,4l-4,1.8l-0.2,1.4
	c-1.7,1.3-3.4,2.6-5.1,3.9c-0.9,5.1-5.4,8.4-4.5,13.9l4.1,1.8l3.5,8.4l7.3-0.7c9,4.2,15.7,8.3,25.9,9.5c2.6,8.8,1.9,14.1,10.8,19.3
	l-0.3-2.8l2.1,1.4c-0.1-1.8,0.2-3.6,0.8-5.3c-0.6-3.8-2.3-7.2-2.8-10.8l2.9-1.1l7.1-9.1l-6.8-8.5c2.3-3.1,4.2-6.3,3.4-10.3l-2.6-0.1
	l2.4-4.1l-1.7-3.5c5,0.1,10.1,0.7,14.9-0.9c2.8,1.7,5.4,3.2,7.1,6.1l6.1,1.2c-0.3,3.2,0.2,6.4,0.6,9.6l-1.5,1l0.5,1.4l4-0.9l2.2,2.7
	l3.9-1.6l2.6,0.5c0.6-2.2,1.2-4.3,2-6.5l2.2-2.1c2.5,2.5,5.4,5.3,5.6,8.9c1.1,1.1,2.3,2.2,3.6,3.1l-0.8,1.5l2.6,3.2l-3.1,0.1
	l1.2,2.1c1.8,0.6,3.4,1.6,4.7,3l-0.1,2.9c3.6-0.4,7.2,0.7,10.5,2.3c-2.6,1.5-5.4,2.8-8.4,3.5l-0.9,2.4c2.8-0.8,5.5-2.1,7.9-3.8
	l1.9,0.5l0.6,2.3l4.1,0.5c0.2,1.6,0.3,3.1,0.4,4.7l-2.2,2.9c-4.5,0.5-7.7,2.2-11,5.2c-7.5,0.4-16.2-0.5-23.5,1.6l-1.9,3.2
	c-5.9,1-8.9,7-12.3,11.2c6.3-5.4,10.2-7.7,18-10.4l4,3.3c-2,1.4-4.3,2-6.8,1.6c2,0.7,3.9,1.1,6,1.3l-2.3,2.8
	c1.6,1.5,3.4,2.9,5.3,4.1c0,0,2,1.6,3.6,2l2.6-0.9l1.6,2l1.7,0.6c-2.6,1-5.4,1.6-7.9,2.6c-1.1-0.1-2.3-0.1-3.4,0.2
	c-1,1.8-2.3,3.3-3.9,4.5l-1.5-1.3l0.3-3.2l5.2-3.1l0.4,1.1l2.6-1.1l-5.1,0.1l1.4-1.9l-0.5-0.9c-2.5,1.7-5.3,3-8.3,3.4
	c0.1,0.7,0,1.3-0.1,2c-1.4,0.8-8.7,3-9.3,3.4c-0.6,2.4-1.9,4.6-3.6,6.3l3.5,1.6l-3.2,1.6l-0.7-1c-2.9,1.8-10.1,4.4-10.1,4.4
	c0.1,1,0.2,1.9,0.3,2.9c-0.9,1.4-1.9,2.7-2.9,3.9c-0.7-0.9-1.3-1.7-2-2.6c0,0,0.6,2.9,1.8,4.6c-0.8,1.8-1.9,3.5-3.2,5l0.1-9.5
	l-2,1.3l2.8,13.8l-4.5,2.1l2.5,0.7c-2.4,0.8-8.8,4.9-8.8,4.9c-2.8,4.8-7.8,5.2-7.9,11.5c-0.1,5,2.9,10.1,4.2,15l-1.6,5.3
	c-0.9-0.3-6.6-7.2-7.5-9l0.1-5.5c-1.5-0.9-9.1-2.8-9.1-2.8s-6.8-2.3-8.8-3c-2,0.5-3.3,5.6-3.3,5.6c-1.3-0.8-9.8-1.8-9.8-1.8
	c-3.2-0.4-13.5,3.8-16.1,3.6l-2.6,2.6l0.5,6.8c-2.8,4.6-1.6,10.6-1.6,15.8c3.8,5.8,5.7,9.4,12.6,11.5c2.5-0.6,4.9-1.3,7.4-2
	c2.7-4.7,4.8-9.1,10.9-9.4l4.7,2.6l-2.1,2.6c0.1,1.9-0.1,3.9-0.6,5.8l-1-1.8l-0.8,1.9c0.6,2.1,0.6,4.2,0,6.3l-1.6,1.5
	c5.2,1.4,10.6-0.3,15.7,1l0.2,1.4l2.6,2.9c-2.1,4.1-1.2,8.5-1,12.9c2,1.9,3.8,3.7,5.3,6c3.3-0.6,6.6-1.1,9.9-1.9l4,1.2l2.5,3.9
	c0,0,0.9,0.1,2.9-0.2l-1.3,1.8c0.1,2.5-0.3,4.8-1.2,7.1l2.7,1.6c0,0,3-7.1,4.8-8.2l-1.9-1.2c3.4,0.5,6.1,2.6,8.7,5
	c3.6-0.3,7.3,0,10.7,1l5.5-1.9l4,2.9c0.9,0.8,2,1.4,3.1,1.8l-3.2,2.8c3.7,0.4,6.7,0.2,9.6,2.6l1.3,4.1c4.9,3.7,12.7,3.2,18.5,4
	c1.8,1.8,3.8,3.5,5.9,4.8c0.5,3.4,2,6.7,4.2,9.3c-2.4,3.2-5.6,5.2-7.3,8.9l3.9-1.2l5.6,2.3l-0.4,1.7c1.5-1.2,2.8-2.6,3.9-4.2
	c4-0.4,7.9,0.5,11.5,2.2l0.7,4.7c6.3-1.1,10.8-0.8,17.2,0c4.7,3.8,8.1,6.1,13.7,8.3l-1,13.7c-1.4,1.8-3.1,3.2-5.1,4.2
	c-0.7,2.2-1.7,4.3-3,6.2l-2.3-0.3c-1.7,5.4-0.5,11.3-1.5,16.9c-1.1,5.7-9.1,18.8-9.1,18.8c-4.1,0.6-8-0.7-11.2,2.6
	c-4.5,0.6-7.6,4.3-11.4,6.7c-0.3,3.4-0.2,6.8-0.1,10.2c-4.1,3.7-5.1,8.9-9.1,12.7l2.8-5.5l-2-0.2l-0.7,2.8
	c-4.2,3.7-5.4,9.7-9.4,13.9c-4.7,1.1-9.7,0.3-13.8-2.1l0.4,2.3l2.3,1.4c0.4,2.4,1.3,4.7,2.6,6.8c-1.2,1.7-2.3,3.5-3.3,5.3
	c-4.7,1.9-10.1,3.1-15.1,2.1c-0.2,2.6-0.2,4.9-0.2,7.6c-3.1,1.1-6.3,1.3-9.3,0.1c0.2,2,0.6,4.1,1,6.1l3.6-0.2l-0.6,2.1l-3.8,2
	c-0.9,2.1-1.5,4.2-1.6,6.5l-5.8,2.5l0.9,5.7l4.1,2.9c-5.7,8.5-8.6,10.2-9,21.2l-3.3-0.4c-1,1.2,13.5,7.9,11.6,9l-20-2.7
	c0,0-7-11.2-8-12.3l-0.9-13.8c0.2-1.3,0.8-2.3,1.8-3.1l-5-1.9l3.7-3.2c0,0,6.1-8.2,6.4-14.6c-0.7-0.9-4-3-4-3l-0.6-4.3l1.9-3
	c-0.7-3.1-0.6-6.2-1.3-9.3c0,0,5.1-10,6.9-14.2l-0.4-1.7l0.9-2.2c-0.7-3.6-1.5-7.2,0.7-10.5c-1.7-5.7,2.9-13.2,2.6-19.4
	c-0.3-6.5,0.5-13.4,0.5-20.1c-7.1-7.3-15.4-10-20.6-19c-4.5-7.7-8-19.6-16.3-23.9l1.5-0.4c-0.4-1.8-0.8-3.7-1.1-5.6l3.3-2.6l1.4-4.2
	l-1.8,1.6l-1.9-1.3c0.4-1.5,0.3-2.9-0.2-4.3l2.1-1.2c0.7-1.7,1.2-3.5,1.8-5.2c1.6-0.6,4.5-5.1,4.5-5.1l4.6-4.7
	c-0.8-4.5-1.3-8.9-2-13.3l1.9-0.7l-1.2-2.3c0,0,4.2-2.5,6.4-4l0.4-2.3l3.3-0.9l1.2-2.1l3.1,0l1.2-3.7l-0.5-1.1
	c-1.7-1-7.6,0.8-7.6,0.8l1.1,2.8l-2.8,0.7l-1-2.2c-2-0.8-4.1-0.9-6.2-0.4l-9.3-7.2c-0.1-3.6-2.3-6.1-5.2-8.2
	c-0.2-1.2-0.7-2.3-1.7-3.1c-10.1-1.5-14.5-3.9-22.8-9.7l-6.8,1.8c-10.6-3.1-20.5-7.7-29.2-14.4c2.1-9-6.5-10.9-9-18
	c-1.5-0.9-15.5-17.2-16.8-22.1l-6-2.4l-0.4,2.4c1.6,3.7,3.6,8.1,7,10.3c1,6.6,8.7,12.2,11.3,18.2l-2.2,0c-2.3-1.8-4.5-3.8-6.6-5.8
	c0.2-1.4,0-2.7-0.6-3.9c-2.8-2.7-6-4.6-9.3-6.7l1.9-3.9c-5.9-3.1-8.5-12.3-11.2-18.1c-2.7-1.5-5.7-2.6-8.7-3.1
	c-1.4-4.5-5.5-7.7-6.4-12.5l-0.1-0.1l-4.1-4.3c-1.1-5.3-2-10.8-2.9-16.2l1.7-2.5c-0.1-3.7,0.1-7.3,1.2-10.9l-2.8-7l6.1-0.3l0.3,2.9
	c1.8-3.3,0.6-7.1-1.6-9.9c-2-0.1-9.8-5.4-12-6.1l-4-3.6l0.8-2.7c-1-2.2-5.7-5.1-5.7-5.1c-1.6-1.2-9.4-10.7-9.4-10.7l-0.3-3.5
	c-3.8-2.7-4.3-7.4-8.4-9.7l-1.5,1c-1.6-1.3-3.4-2.1-5.3-2.6l1.8,2l-3.2,0.1c-2.3-2.3-20.6-8-23.8-7.9L67.3,124c-0.1,1.7,0,3.3,0.3,5
	c-4.4-0.2-7.9,2.8-11.7,4.6c0.5-3.3,5.1-10.9,5.1-10.9c-5.4,2.6-8.1,7-13,10.1l2.2,2.7c-2.9,3.5-10.6,8.6-10.6,8.6
	c-3.3,0.6-6.4,2.4-8.5,5l-4.2-0.8c8.1-3.8,7-6.4,11.3-13.1c-2-0.1-4-0.1-6,0l0.2,1.4c-3.4-1.5-7-2.4-10.7-2.6l-0.1-3.9
	c-2.4-0.9-4.8-1-7.3-0.4l-2.2-2.3l0.9-2l3.8,0.6c-2.1-1.5-4.6-2.4-7.1-3l-1.8-2.6c0,0,4.5-5.6,6.8-7.7l3.2,1
	c1.5-1.6,7.6-4.8,7.6-4.8l-1.3-3.1l1.6-1.3l-3.3-0.5l-4.1,2.1c-3.5-1.2-7-0.9-10.7-1l-1.1-2.8l3.1-0.6l-8.3-2.4
	c4.9-1.9,9.6-3.5,14.7-4.7l0.7,2.2c4,0.8,7.2-1.4,11.2-1l0.5-1.3c-1.9-0.3-3.7-0.7-5.6-1l-5.7-2.5c-3-3.2-7.4-4.8-11.3-6.9l1.7-2
	c2.5-0.6,4.9-1.2,7.4-1.7c2.1-3.8,13.3-8.3,13.3-8.3l-0.3-2.6c14.9-2.7,69.3,8.8,82.9,12.8l-1.2-2l16.4-6.7l3.6,0.3
	c-3.5,2.6-8.3,5.3-12.4,6.6c0.6,1.3,5.8-1,5.8-1c4.7-1.3,11.5-8.9,11.5-8.9c3.2,2.9,6.6,5.5,10.2,7.9l0-2.8l3.6,2.6l1.6-0.4l2.3-2.3
	c8.7,0.8,23.1,3.6,30.1,8.8l-2.6,0.3l-2.2,2.1c6.5,1.1,11,0.9,17.5-0.1c2.4,1.3,5.1,2.1,7.5,3.3l-1.1,1.3l2.9,3l1.5-2.1l-2-5
	c2.6-0.7,5-1.7,7.3-2.9c8.1,2.7,15.6,4.4,24,2.3l1.6,1.3l2.5-1l-4.3-1.6l1.8-1.2c2,0.4,3.9,1.3,5.6,2.4l0,3.7l3.1,1.5l-0.5-5.3
	c2.6-0.9,4.7-2.5,6.5-4.6l-3.6-0.6l2.1-1.8l3.2,1.2v-3.2c-3.7-0.2-7-1.9-10.7-2.8c-0.2-1.7-0.6-3.3-1.1-4.9l0.8-2.9l2.9,0.1
	l-1.1-2.8 M310.6,231L310.6,231L310.6,231L310.6,231z M310.6,230.8L310.6,230.8L310.6,230.8L310.6,230.8z M683.1,406.9l2.4-5.2
	c-1.9-3.7-1.6-7.8-0.3-11.6l0.8-0.9c1.4-0.3,2.8-0.7,4.2-1.4l1.7,0.3l2.6-2l0.7-1.8l1.5-0.4c0.1-1.3,0.2-2.6,0.2-3.9l1.4,0.9
	l1.6-1.7l0.4-2.9l3.5,2.3c0.4,2.9,0.9,5.7,1.5,8.5l-2.2-1c0.7,10.5-5.4,22.7-8.4,32.7l-5.4,2.8C680.8,421.4,682.4,412.6,683.1,406.9
	L683.1,406.9L683.1,406.9z M897.8,341.3c6.2-0.4,7.4,5.5,12.4,7.5l12.3,11c0,0,5.6,7.3,6.5,7.5c2.3,3.2,1,7.5,0.7,11.2
	c-1.4,0-3.4,0.1-3.4,0.1c-5.1-4.3-9.9-8.2-13.6-13.7c-3.8-5.6-9.9-12.3-12.4-18.2c-3-1-5.2-3.5-5.5-6.7
	C895.7,340.4,896.7,340.9,897.8,341.3L897.8,341.3z M929.4,381.3l0.7-0.9l3.9-1.5c2.1,0.7,4,1.8,5.7,3.1c4.2,0,8.5-0.8,12.5,0.7
	l0.7,1.6c1.7,0.8,3.6,1.2,5.5,1.1l0.2,2.8c-4-2.1-16.5-4.2-20.8-3c-1.9-0.9-3.9-1.4-6-1.4l0.7-1l-4.7-1.2
	C928.3,381.3,928.9,381.3,929.4,381.3L929.4,381.3z M972.7,218.2l1.2-1.4l1.8,1l1.6-0.1c-0.4,3.3-0.1,7.1-2.9,9.6
	c-0.1-0.8-0.4-1.5-0.8-2.2l-1.1,1.5c-0.4-1.7,0-3.4,1.1-4.7c-1.2-1.1-2.5-2.1-3.9-2.9C970.7,218.7,971.7,218.4,972.7,218.2
	L972.7,218.2z M983.7,218l-3.5,2.1l-1-2c1.8-1.1,3.6-2.2,5.5-3.1l2.6,0.9l-0.9,2.2L983.7,218L983.7,218L983.7,218z M963.6,344.4
	l6.3,2.1l-1.9,0.4l0.2,1.2c1.1,0.8,1.8,1.8,2.3,3.1l-0.4,1.3l3.5,3.3l-4,0.6l-0.6,5.5l-4.5,3.1c0,2.2-0.7,4.3-1.8,6.2l-3.6,0.7
	c-1.2-1.3-2.7-2.2-4.4-2.7c-1.5,0.8-3.1,1.3-4.7,1.6l-0.5-2.8l-5,0.8l-0.5-4.7l-2.5-2.7l0.7-0.5c-0.7-1.6-1.4-3.3-2.1-4.9l2.1-3.8
	c0.7,1.5,1.7,2.6,3.1,3.5c4.9,0.4,8.9-2.3,13.8-2C960.3,350.4,962.4,347.7,963.6,344.4L963.6,344.4L963.6,344.4z M996.1,205.7
	c2.6-1.1,4.9-2.9,6.8-5c1-3.7,2-7.3,3-10.9l2.4-0.2l-0.2-1.9l1.6-0.5c0.8,3.1,1.1,6.3,1.5,9.5c-1,1.5-1.9,3.1-2.7,4.7l0.3,2.6
	l-1.6,3.5l1,1.9l-1,0.6c-0.4,1.2-1.2,2.1-2.3,2.6l0.4-2.7c-1.7,0.8-2.9,2-3.6,3.7l-1.2-1.3l-2.8,1.4l-2.2-0.9
	c-1.4,1.7-2.7,3.5-4.1,5.2l-2.2-3.4c-3.1-1.2-6.6-0.3-9.8,0.1l-0.7,1.7L976,216l-0.3-1.3c3.6-3.8,10.6-5.9,15.6-4.7
	c1.3-2.7,3-5.3,5.2-7.4L996.1,205.7L996.1,205.7L996.1,205.7z M1023.7,179.9l-3.7,0.9l-3.4,3.4c-3.3-1.6-6.8-0.8-10.2-0.8l3.1,2.1
	c-1.3,0.4-2.5,1-3.5,2c-0.1-1.2-0.5-2.3-1.2-3.4c1-1.4,1.7-2.9,2.1-4.5l3-1.3l1.4-2.6l-0.3-3.1l1.3-1.7c2,2.4,4.5,4.4,7.2,6l4-1.5
	l-0.7,2.2L1023.7,179.9L1023.7,179.9L1023.7,179.9z M1071.7,386.3l1,2.5l2.9,0.5l0.4,1.5l1.5,0.4l-0.6,0.9l3.1,2.6
	c-6.8-2.1-10.8-3.6-15.7-8.9c-2.4-0.6-4.8-1.1-7.2-1.5l0.4,1.5l-1.1,0.8h-4l3.6,2.3c-2.5,1.2-5.4,1.4-8.1,0.9l-3.3-3.5l-3.4,0.3
	l0.6-1.5l-1.6-2.5l1.2-0.4c-1.6-1.4-2.8-3.1-3.7-5.1c-4.1-1.7-8.4-3.2-12.5-4.8l-1.5-2.9l-2.1,3.3c-1-1.7-2.2-3.3-3.6-4.7
	c2.3,0.5,4.4-0.1,6.1-1.8l-5.5,0.3l-1.1-1.9l-2.8-0.8l0.5-1.8c2-0.9,4.1-1.2,6.3-1l3.4,2.4l1.2,5.3l0.4-0.9l4,1.4l1.7-2.5l1.8-0.2
	l1.1-1.4c8.2-1.2,17,5,24.8,6.9c0.9,1.3,2,2.3,3.4,3l1.1,2.7l6.2,3.7l-2.6,1.5L1071.7,386.3L1071.7,386.3L1071.7,386.3z
	 M952.4,450.3l3.3,1.6l0.4-2.4l-2.6-4.3c1-2.7,1.7-5.6,2.1-8.5l1.2,1.3c1.5-2.7,4.5-4.5,7-6.4c7.2-0.7,15.5-5.3,19.7-11l-0.7-1.8
	l2.2-3.1l2.7-1.2c0,0,4.3-3.4,6.3-4.3c0.5-1.2,1.2-2.4,2-3.4c0.9,0,1.7-0.2,2.5-0.7l4.3,1.9l1.6,1.6c1.4,0.1,2.7,0.1,4.1,0.2
	l0.6-0.9l-1.1-1.5l1.4-2.4l1.8-1l1.1-2.8l1.4-0.9c2,0.2,3.8-0.2,5.6-1.1c-0.9-0.5-1.7-1.2-2.2-2.1c3.8,1.5,9.4,3.6,13.3,2.4
	c0,0,2.1,0.7,2.8,0.7l0.9,1.1c-1,1.2-2.1,2.3-3.2,3.4c-0.1,1.6-0.6,3-1.6,4.2c3.6,2.7,8.1,5.6,12.5,6.5c1.3,2.2,3.2,3,5.6,2.4
	c3.7-4.9,1.4-12,5.1-15.9l-1.4-0.4c1.3-1.6,2.4-3.4,3.2-5.3c2.4,3.6,3.5,7.2,4.5,11.5c1.1-0.1,2.2,0.2,3.1,0.8
	c2.5,3.4,2.6,7.5,5,10.9c-0.3,1.4-0.2,2.7,0.4,3.9l3.3,1.9l0.5,0.9c1.7,0.7,3.4,1.7,4.8,3l-0.1,1.6c1.4,1.9,2.6,4,3.7,6.1l0.6-0.7
	l1.8,0.6l0.6,3.9c3.1,2.8,6.1,5.7,7.4,9.8c-0.1,1.5-0.3,2.9-0.7,4.4l0.8,1.1c0.6,6.2-0.6,12.4-3.4,17.9c-5.4,3.9-8.8,13.1-10,19.4
	l-6.7,1c-1.3,1.4-3,2.4-4.8,3c0.4,0.4,0.5,0.9,0.4,1.4c-1.3-0.6-2.3-1.7-2.9-3.1l-2.2-0.1l0.3-2.1c-1.4,1.5-3.1,2.7-5.1,3.4
	c-4-2.4-8.7-2.6-11.7-6.8l-0.8-5.1l-1.9-2l-2.1,0l0.9-2l-1.7-3.1l-1.3,3.4c-0.9-0.1-1.7,0-2.5,0.4l2-2.5c0.4-2.6,0.7-5.1,1.1-7.7
	c-1.4,3.1-6,8.8-6,8.8l-2.8-1.7l0-2.3c-0.9-0.6-3.7-4.1-3.7-4.1l-2.1-3c-10.9-0.8-26.5-2.2-33.3,9l-1.4-0.5l-1.8,0.7
	c-2.5-0.5-5-0.1-7.5,0.6c-2.3,2.2-4.8,4-7.6,5.5c-3.3,0.2-6.5-0.4-9.2-2.3c0.1-2.9,0.6-5.7,1.2-8.5
	C959.8,465.2,956.6,458.2,952.4,450.3L952.4,450.3L952.4,450.3z M1060.6,506.3l0.1-2.9l5.2,2.2c1.8-0.3,3.5-0.6,5.3-0.9l1.1,4.3
	c-1,1.7-1.5,3.6-1.6,5.6l-0.5-1l-2.7,2.6l-2.5-0.3l-0.3-1.4l-1.2-0.6C1062.4,511.3,1061.9,508.8,1060.6,506.3L1060.6,506.3
	L1060.6,506.3z"/>
</svg>
