<?xml version="1.0" encoding="utf-8"?>
<!-- Generator: Adobe Illustrator 19.0.0, SVG Export Plug-In . SVG Version: 6.00 Build 0)  -->
<svg version="1.1" id="Layer_1" xmlns="http://www.w3.org/2000/svg" xmlns:xlink="http://www.w3.org/1999/xlink" x="0px" y="0px"
	 viewBox="0 0 30 30" style="enable-background:new 0 0 30 30;" xml:space="preserve">
<g>
	<g>
		<path d="M15,30c-6.3,0-11.5-4.3-11.5-9.5c0-3.6,7.8-11.5,8.6-12.4C12.2,8.1,12.4,8,12.5,8h5c0.1,0,0.3,0.1,0.4,0.1
			c0.9,0.9,8.6,8.8,8.6,12.4C26.5,25.7,21.3,30,15,30z M12.7,9c-2.4,2.5-8.2,8.9-8.2,11.5C4.5,25.2,9.2,29,15,29s10.5-3.8,10.5-8.5
			c0-2.6-5.8-9-8.2-11.5H12.7z"/>
	</g>
	<g>
		<path d="M20,9H10C9.7,9,9.5,8.8,9.5,8.5S9.7,8,10,8h10c0.3,0,0.5,0.2,0.5,0.5S20.3,9,20,9z"/>
	</g>
	<g>
		<path d="M17.5,9h-5c-0.1,0-0.2,0-0.3-0.1c-1.6-1.4-6.7-6.3-5-8.2c0.2-0.2,0.5-0.4,0.8-0.4c1.2,0,3.1,1.6,4,2.4
			C12.7,1.7,14.1,0,15,0s2.3,1.7,3.1,2.7c0.9-0.8,2.8-2.4,4-2.4c0.3,0,0.6,0.1,0.8,0.4c1.7,1.9-3.4,6.8-5,8.2C17.7,9,17.6,9,17.5,9z
			 M12.7,8h4.6c2.9-2.6,5.5-5.9,4.8-6.7c-0.8-0.1-2.7,1.4-3.8,2.5C18.2,4,18.1,4,18,4c-0.1,0-0.3-0.1-0.4-0.2C16.6,2.4,15.4,1,15,1
			c-0.4,0-1.6,1.4-2.6,2.8C12.3,3.9,12.2,4,12,4c-0.1,0-0.3,0-0.4-0.1C10.6,2.8,8.7,1.3,8,1.3c0,0,0,0,0,0C7.2,2.1,9.8,5.4,12.7,8z"
			/>
	</g>
	<g>
		<path d="M15,24.5c-1.3,0-2.4-1-2.5-2.2c0-0.3,0.2-0.5,0.5-0.5c0.3,0,0.5,0.2,0.5,0.5c0,0.7,0.7,1.3,1.5,1.3c0.8,0,1.5-0.6,1.5-1.4
			c0-0.9-0.8-1.2-1.5-1.4l-0.1,0c-1.6-0.4-2.4-1.2-2.4-2.4c0-1.3,1.1-2.4,2.5-2.4c1.3,0,2.4,1,2.5,2.2c0,0.3-0.2,0.5-0.5,0.5
			c-0.3,0-0.5-0.2-0.5-0.5c0-0.7-0.7-1.3-1.5-1.3c-0.8,0-1.5,0.6-1.5,1.4c0,0.9,0.8,1.2,1.5,1.4l0.1,0c1.6,0.4,2.4,1.2,2.4,2.4
			C17.5,23.4,16.4,24.5,15,24.5z"/>
	</g>
	<g>
		<path d="M15,25c-0.3,0-0.5-0.2-0.5-0.5v-9c0-0.3,0.2-0.5,0.5-0.5s0.5,0.2,0.5,0.5v9C15.5,24.8,15.3,25,15,25z"/>
	</g>
</g>
</svg>
