<?xml version="1.0" encoding="utf-8"?>
<!-- Generator: Adobe Illustrator 19.0.0, SVG Export Plug-In . SVG Version: 6.00 Build 0)  -->
<svg version="1.1" id="Layer_1" xmlns="http://www.w3.org/2000/svg" xmlns:xlink="http://www.w3.org/1999/xlink" x="0px" y="0px"
	 viewBox="0 0 30 30" style="enable-background:new 0 0 30 30;" xml:space="preserve">
<g>
	<g>
		<path d="M20.5,11h-11C9.2,11,9,10.8,9,10.5C9,7.6,11.8,5,15,5s6,2.6,6,5.5C21,10.8,20.8,11,20.5,11z M10,10H20c-0.3-2.2-2.5-4-5-4
			S10.3,7.8,10,10z"/>
	</g>
	<g>
		<path d="M11.5,30h-11C0.2,30,0,29.8,0,29.5C0,26.6,2.8,24,6,24s6,2.6,6,5.5C12,29.8,11.8,30,11.5,30z M1,29H11c-0.3-2.2-2.5-4-5-4
			S1.3,26.8,1,29z"/>
	</g>
	<g>
		<path d="M29.5,30h-11c-0.3,0-0.5-0.2-0.5-0.5c0-2.9,2.8-5.5,6-5.5s6,2.6,6,5.5C30,29.8,29.8,30,29.5,30z M19,29H29
			c-0.3-2.2-2.5-4-5-4S19.3,26.8,19,29z"/>
	</g>
	<g>
		<path d="M5.5,17C5.2,17,5,16.8,5,16.5v-10C5,6.2,5.2,6,5.5,6h2C7.8,6,8,6.2,8,6.5S7.8,7,7.5,7H6v9.5C6,16.8,5.8,17,5.5,17z"/>
	</g>
	<g>
		<path d="M24.5,17c-0.3,0-0.5-0.2-0.5-0.5V7h-1.5C22.2,7,22,6.8,22,6.5S22.2,6,22.5,6h2C24.8,6,25,6.2,25,6.5v10
			C25,16.8,24.8,17,24.5,17z"/>
	</g>
	<g>
		<path d="M15,6c-1.7,0-3-1.3-3-3s1.3-3,3-3s3,1.3,3,3S16.7,6,15,6z M15,1c-1.1,0-2,0.9-2,2s0.9,2,2,2s2-0.9,2-2S16.1,1,15,1z"/>
	</g>
	<g>
		<path d="M6,25c-1.7,0-3-1.3-3-3s1.3-3,3-3s3,1.3,3,3S7.7,25,6,25z M6,20c-1.1,0-2,0.9-2,2s0.9,2,2,2s2-0.9,2-2S7.1,20,6,20z"/>
	</g>
	<g>
		<path d="M24,25c-1.7,0-3-1.3-3-3s1.3-3,3-3s3,1.3,3,3S25.7,25,24,25z M24,20c-1.1,0-2,0.9-2,2s0.9,2,2,2s2-0.9,2-2S25.1,20,24,20z
			"/>
	</g>
</g>
</svg>
