<?xml version="1.0" encoding="utf-8"?>
<!-- Generator: Adobe Illustrator 19.0.0, SVG Export Plug-In . SVG Version: 6.00 Build 0)  -->
<svg version="1.1" id="Layer_1" xmlns="http://www.w3.org/2000/svg" xmlns:xlink="http://www.w3.org/1999/xlink" x="0px" y="0px"
	 viewBox="0 0 30 30" style="enable-background:new 0 0 30 30;" xml:space="preserve">
<g>
	<g>
		<path d="M29,30H1c-0.3,0-0.5-0.2-0.5-0.5c0-1.9,1.4-3.5,3-3.5h22.9c1.7,0,3,1.6,3,3.5C29.5,29.8,29.3,30,29,30z M1.5,29h26.9
			c-0.2-1.1-1-2-2-2H3.5C2.6,27,1.7,27.9,1.5,29z"/>
	</g>
	<g>
		<path d="M24,6H6C5.7,6,5.5,5.8,5.5,5.5v-3C5.5,1.1,6.6,0,8,0h14c1.4,0,2.5,1.1,2.5,2.5v3C24.5,5.8,24.3,6,24,6z M6.5,5h17V2.5
			C23.5,1.7,22.8,1,22,1H8C7.2,1,6.5,1.7,6.5,2.5V5z"/>
	</g>
	<g>
		<path d="M4.8,15c-1.7,0-3.1-1.4-3.1-3.1c0-0.1,0-0.2,0.1-0.3l3.8-6.4C5.8,5.1,5.9,5,6.1,5h2.6C8.8,5,8.9,5.1,9,5.2
			c0.1,0.1,0.1,0.3,0.1,0.4l-1.3,6.4C7.9,13.7,6.5,15,4.8,15z M2.8,12.1c0.1,1.1,1,1.9,2,1.9C6,14,6.9,13.1,6.9,12L8,6H6.4L2.8,12.1
			z"/>
	</g>
	<g>
		<path d="M15,15C13.3,15,12,13.7,12,12V5.5C12,5.3,12.2,5,12.5,5h5.1c0.3,0,0.5,0.2,0.5,0.5V12C18.1,13.7,16.7,15,15,15z M13,6V12
			c0,1.1,0.9,2.1,2.1,2.1s2.1-0.9,2.1-2.1V6H13z"/>
	</g>
	<g>
		<path d="M9.9,15c-1.7,0-3.1-1.4-3.1-3.1l1.3-6.5C8.2,5.2,8.4,5,8.6,5h3.8C12.7,5,13,5.3,13,5.5V12C13,13.7,11.6,15,9.9,15z M9.1,6
			l-1.2,6c0,1,0.9,2,2.1,2S12,13.1,12,12V6H9.1z"/>
	</g>
	<g>
		<path d="M25.2,15c-1.7,0-3.1-1.4-3.1-3.1l-1.3-6.3c0-0.1,0-0.3,0.1-0.4C21.1,5.1,21.2,5,21.4,5h2.6c0.2,0,0.3,0.1,0.4,0.2l3.8,6.4
			c0,0.1,0.1,0.2,0.1,0.3C28.3,13.7,26.9,15,25.2,15z M22,6l1.2,5.8c0,1.2,0.9,2.2,2.1,2.2c1.1,0,2-0.9,2-1.9L23.7,6H22z"/>
	</g>
	<g>
		<path d="M20.1,15c-1.7,0-3.1-1.4-3.1-3.1V5.5c0-0.3,0.2-0.5,0.5-0.5h3.8c0.2,0,0.4,0.2,0.5,0.4l1.3,6.4C23.2,13.7,21.8,15,20.1,15
			z M18.1,6V12c0,1.1,0.9,2.1,2.1,2.1c1.1,0,2.1-0.9,2.1-2.1L21,6H18.1z"/>
	</g>
	<g>
		<path d="M8,25c-0.2,0-0.4-0.1-0.5-0.4L6,19.3l-1.5,5.3C4.4,24.9,4.2,25,4,25c-0.2,0-0.4-0.2-0.5-0.4l-1-8c0-0.3,0.2-0.5,0.4-0.6
			c0.3,0,0.5,0.2,0.6,0.4L4.2,22l1.3-4.6c0.1-0.4,0.8-0.4,1,0L7.8,22l0.7-5.6c0-0.3,0.3-0.5,0.6-0.4c0.3,0,0.5,0.3,0.4,0.6l-1,8
			C8.5,24.8,8.3,25,8,25C8,25,8,25,8,25z"/>
	</g>
	<g>
		<path d="M17,25c-0.2,0-0.4-0.1-0.5-0.4L15,19.3l-1.5,5.3C13.4,24.9,13.2,25,13,25c-0.2,0-0.4-0.2-0.5-0.4l-1-8
			c0-0.3,0.2-0.5,0.4-0.6c0.3,0,0.5,0.2,0.6,0.4l0.7,5.6l1.3-4.6c0.1-0.4,0.8-0.4,1,0l1.3,4.6l0.7-5.6c0-0.3,0.3-0.5,0.6-0.4
			c0.3,0,0.5,0.3,0.4,0.6l-1,8C17.5,24.8,17.3,25,17,25C17,25,17,25,17,25z"/>
	</g>
	<g>
		<path d="M26,25c-0.2,0-0.4-0.1-0.5-0.4L24,19.3l-1.5,5.3C22.4,24.9,22.2,25,22,25c-0.2,0-0.4-0.2-0.5-0.4l-1-8
			c0-0.3,0.2-0.5,0.4-0.6c0.3,0,0.5,0.2,0.6,0.4l0.7,5.6l1.3-4.6c0.1-0.4,0.8-0.4,1,0l1.3,4.6l0.7-5.6c0-0.3,0.3-0.5,0.6-0.4
			c0.3,0,0.5,0.3,0.4,0.6l-1,8C26.5,24.8,26.3,25,26,25C26,25,26,25,26,25z"/>
	</g>
</g>
</svg>
