<?xml version="1.0" encoding="utf-8"?>
<!-- Generator: Adobe Illustrator 19.0.0, SVG Export Plug-In . SVG Version: 6.00 Build 0)  -->
<svg version="1.1" id="Layer_1" xmlns="http://www.w3.org/2000/svg" xmlns:xlink="http://www.w3.org/1999/xlink" x="0px" y="0px"
	 viewBox="0 0 30 30" style="enable-background:new 0 0 30 30;" xml:space="preserve">
<style type="text/css">
	.st0{fill:none;stroke:#000000;stroke-linecap:round;stroke-linejoin:round;stroke-miterlimit:10;}
</style>
<g>
	<g>
		<g>
			<path d="M21.5,18h-21C0.2,18,0,17.8,0,17.5S0.2,17,0.5,17h21c0.3,0,0.5,0.2,0.5,0.5S21.8,18,21.5,18z"/>
		</g>
		<g>
			<path d="M18.5,26h-10C8.2,26,8,25.8,8,25.5S8.2,25,8.5,25h10c0.3,0,0.5,0.2,0.5,0.5S18.8,26,18.5,26z"/>
		</g>
		<g>
			<g>
				<path d="M28.5,26h-6c-0.8,0-1.5-0.7-1.5-1.5v-13c0-0.8,0.7-1.5,1.5-1.5h6c0.8,0,1.5,0.7,1.5,1.5v13C30,25.3,29.3,26,28.5,26z
					 M22.5,11c-0.3,0-0.5,0.2-0.5,0.5v13c0,0.3,0.2,0.5,0.5,0.5h6c0.3,0,0.5-0.2,0.5-0.5v-13c0-0.3-0.2-0.5-0.5-0.5H22.5z"/>
			</g>
			<g>
				<path d="M29.5,14h-8c-0.3,0-0.5-0.2-0.5-0.5s0.2-0.5,0.5-0.5h8c0.3,0,0.5,0.2,0.5,0.5S29.8,14,29.5,14z"/>
			</g>
			<g>
				<path d="M29.5,23h-8c-0.3,0-0.5-0.2-0.5-0.5s0.2-0.5,0.5-0.5h8c0.3,0,0.5,0.2,0.5,0.5S29.8,23,29.5,23z"/>
			</g>
		</g>
		<g>
			<path d="M21.5,22H3.1C1.4,22,0,20.6,0,18.9V7.1C0,5.4,1.4,4,3.1,4h20.7C25.6,4,27,5.4,27,7.1v3.4c0,0.3-0.2,0.5-0.5,0.5
				S26,10.8,26,10.5V7.1C26,6,25,5,23.9,5H3.1C2,5,1,6,1,7.1v11.7C1,20,2,21,3.1,21h18.4c0.3,0,0.5,0.2,0.5,0.5S21.8,22,21.5,22z"/>
		</g>
		<g>
			<path class="st0" d="M1.8,12.4"/>
		</g>
		<g>
			<path d="M26.5,17h-2c-0.3,0-0.5-0.2-0.5-0.5s0.2-0.5,0.5-0.5h2c0.3,0,0.5,0.2,0.5,0.5S26.8,17,26.5,17z"/>
		</g>
		<g>
			<path d="M13.5,26c-0.3,0-0.5-0.2-0.5-0.5v-4c0-0.3,0.2-0.5,0.5-0.5s0.5,0.2,0.5,0.5v4C14,25.8,13.8,26,13.5,26z"/>
		</g>
	</g>
	<g>
		<path d="M26.5,20h-2c-0.3,0-0.5-0.2-0.5-0.5s0.2-0.5,0.5-0.5h2c0.3,0,0.5,0.2,0.5,0.5S26.8,20,26.5,20z"/>
	</g>
	<g>
		<path d="M21.5,9h-16C5.2,9,5,8.8,5,8.5S5.2,8,5.5,8h16C21.8,8,22,8.2,22,8.5S21.8,9,21.5,9z"/>
	</g>
	<g>
		<path d="M18.5,13h-13C5.2,13,5,12.8,5,12.5S5.2,12,5.5,12h13c0.3,0,0.5,0.2,0.5,0.5S18.8,13,18.5,13z"/>
	</g>
</g>
</svg>
