<?xml version="1.0" encoding="utf-8"?>
<!-- Generator: Adobe Illustrator 19.0.0, SVG Export Plug-In . SVG Version: 6.00 Build 0)  -->
<svg version="1.1" id="Layer_1" xmlns="http://www.w3.org/2000/svg" xmlns:xlink="http://www.w3.org/1999/xlink" x="0px" y="0px"
	 viewBox="0 0 30 30" style="enable-background:new 0 0 30 30;" xml:space="preserve">
<g id="XMLID_105_">
	<g id="XMLID_106_">
		<g id="XMLID_551_">
			<path id="XMLID_451_" d="M14.5,30h-12C1.1,30,0,28.9,0,27.5v-25C0,1.1,1.1,0,2.5,0h12C15.9,0,17,1.1,17,2.5v25
				C17,28.9,15.9,30,14.5,30z M2.5,1C1.7,1,1,1.7,1,2.5v25C1,28.3,1.7,29,2.5,29h12c0.8,0,1.5-0.7,1.5-1.5v-25C16,1.7,15.3,1,14.5,1
				H2.5z"/>
		</g>
		<g id="XMLID_107_">
			<path id="XMLID_450_" d="M16,5H0.5C0.2,5,0,4.8,0,4.5S0.2,4,0.5,4H16c0.3,0,0.5,0.2,0.5,0.5S16.3,5,16,5z"/>
		</g>
		<g id="XMLID_108_">
			<path id="XMLID_449_" d="M16,26H0.5C0.2,26,0,25.8,0,25.5S0.2,25,0.5,25H16c0.3,0,0.5,0.2,0.5,0.5S16.3,26,16,26z"/>
		</g>
		<g id="XMLID_109_">
			<path id="XMLID_448_" d="M8.5,3h-1C7.2,3,7,2.8,7,2.5S7.2,2,7.5,2h1C8.8,2,9,2.2,9,2.5S8.8,3,8.5,3z"/>
		</g>
		<g id="XMLID_110_">
			<path id="XMLID_447_" d="M12.5,3C12.2,3,12,2.8,12,2.5S12.2,2,12.5,2h0C12.8,2,13,2.2,13,2.5S12.8,3,12.5,3z"/>
		</g>
		<g id="XMLID_111_">
			<path id="XMLID_446_" d="M4.5,28h-2C2.2,28,2,27.8,2,27.5S2.2,27,2.5,27h2C4.8,27,5,27.2,5,27.5S4.8,28,4.5,28z"/>
		</g>
		<g id="XMLID_112_">
			<path id="XMLID_445_" d="M14.5,28h-2c-0.3,0-0.5-0.2-0.5-0.5s0.2-0.5,0.5-0.5h2c0.3,0,0.5,0.2,0.5,0.5S14.8,28,14.5,28z"/>
		</g>
	</g>
	<g id="XMLID_113_">
		<g id="XMLID_536_">
			<path id="XMLID_444_" d="M27,30H11.5c-0.3,0-0.5-0.2-0.5-0.5s0.2-0.5,0.5-0.5H27c1.1,0,2-0.9,2-2V15c0-1.1-0.9-2-2-2H16.5
				c-0.3,0-0.5-0.2-0.5-0.5s0.2-0.5,0.5-0.5H27c1.7,0,3,1.3,3,3v12C30,28.7,28.7,30,27,30z"/>
		</g>
		<g id="XMLID_534_">
			<path id="XMLID_443_" d="M25.5,30c-0.3,0-0.5-0.2-0.5-0.5V13c0-0.3,0.2-0.5,0.5-0.5S26,12.7,26,13v16.5C26,29.8,25.8,30,25.5,30z
				"/>
		</g>
		<g id="XMLID_532_">
			<path id="XMLID_442_" d="M27.5,22c-0.3,0-0.5-0.2-0.5-0.5v-1c0-0.3,0.2-0.5,0.5-0.5s0.5,0.2,0.5,0.5v1C28,21.8,27.8,22,27.5,22z"
				/>
		</g>
		<g id="XMLID_530_">
			<path id="XMLID_441_" d="M27.5,26c-0.3,0-0.5-0.2-0.5-0.5s0.2-0.5,0.5-0.5h0c0.3,0,0.5,0.2,0.5,0.5S27.8,26,27.5,26z"/>
		</g>
	</g>
	<g id="XMLID_114_">
		<path id="XMLID_440_" d="M26.5,9.5C26.2,9.5,26,9.3,26,9c0-4-2.8-7-6.5-7C19.2,2,19,1.8,19,1.5S19.2,1,19.5,1C23.8,1,27,4.4,27,9
			C27,9.3,26.8,9.5,26.5,9.5z"/>
	</g>
	<g id="XMLID_115_">
		<path id="XMLID_439_" d="M26.5,10.5c-0.2,0-0.4-0.1-0.4-0.3C25.8,10,25,9.1,24.2,8.4c-0.2-0.2-0.2-0.5,0-0.7
			c0.2-0.2,0.5-0.2,0.7,0c0.8,0.8,1.4,1.3,1.7,1.6l1.6-1.6c0.2-0.2,0.5-0.2,0.7,0s0.2,0.5,0,0.7l-2,2C26.8,10.4,26.6,10.5,26.5,10.5
			z"/>
	</g>
</g>
</svg>
