<?xml version="1.0" encoding="utf-8"?>
<!-- Generator: Adobe Illustrator 19.0.0, SVG Export Plug-In . SVG Version: 6.00 Build 0)  -->
<svg version="1.1" id="Layer_1" xmlns="http://www.w3.org/2000/svg" xmlns:xlink="http://www.w3.org/1999/xlink" x="0px" y="0px"
	 viewBox="0 0 30 30" style="enable-background:new 0 0 30 30;" xml:space="preserve">
<g>
	<g>
		<path d="M23,30c-3.9,0-7-3.1-7-7s3.1-7,7-7s7,3.1,7,7S26.9,30,23,30z M23,17c-3.3,0-6,2.7-6,6s2.7,6,6,6s6-2.7,6-6S26.3,17,23,17z
			"/>
	</g>
	<g>
		<path d="M22.5,26c-0.1,0-0.3,0-0.4-0.1l-2-2c-0.2-0.2-0.2-0.5,0-0.7s0.5-0.2,0.7,0l1.6,1.6l3.6-3.6c0.2-0.2,0.5-0.2,0.7,0
			s0.2,0.5,0,0.7l-4,4C22.8,26,22.6,26,22.5,26z"/>
	</g>
	<g>
		<path d="M16.5,29h-4.9c-0.6,0-1.1-0.4-1.2-1l-0.5-3.4c-0.7-0.3-1.4-0.7-2.1-1.2l-3.3,1.3c-0.6,0.2-1.2,0-1.5-0.5l-2.9-4.8
			c-0.3-0.5-0.2-1.2,0.3-1.5l2.8-2.1c0-0.4-0.1-0.8-0.1-1.1s0-0.7,0.1-1.1l-2.8-2.1c-0.5-0.4-0.6-1-0.3-1.6L3,4.8
			C3.3,4.3,4,4.1,4.5,4.3l3.3,1.3c0.7-0.5,1.4-0.9,2.1-1.2L10.4,1c0.1-0.6,0.6-1,1.2-1h5.8c0.6,0,1.1,0.4,1.2,1l0.5,3.4
			c0.7,0.3,1.4,0.7,2.1,1.2l3.3-1.3c0.6-0.2,1.2,0,1.5,0.5l2.9,4.8c0,0,0,0,0,0c0.3,0.5,0.2,1.2-0.3,1.5l-2.8,2.1
			c0,0.3,0.1,0.7,0.1,1.1c0,0.1,0,0.2,0,0.2l0,0.1c0,0.2-0.1,0.3-0.2,0.4s-0.3,0.1-0.4,0.1c-1.9-0.5-3.8-0.4-5.6,0.5
			c-0.2,0.1-0.4,0.1-0.5-0.1c-0.2-0.1-0.2-0.3-0.2-0.5c0.1-0.4,0.2-0.8,0.2-1.2c0-2.8-2.2-5-5-5s-5,2.2-5,5c0,3.2,2.9,5.7,6.2,4.8
			c0.2,0,0.4,0,0.5,0.2s0.1,0.4,0.1,0.5C15.3,20.6,15,21.8,15,23c0,1.9,0.7,3.7,1.9,5.2c0.1,0.1,0.2,0.4,0.1,0.5
			C16.9,28.9,16.7,29,16.5,29z M7.9,22.3c0.1,0,0.2,0,0.3,0.1c0.7,0.5,1.5,1,2.3,1.3c0.2,0.1,0.3,0.2,0.3,0.4l0.5,3.7
			c0,0.1,0.1,0.2,0.2,0.2h3.9c-1-1.5-1.5-3.2-1.5-5c0-1,0.2-2.1,0.5-3C11,20.3,8,17.5,8,14c0-3.3,2.7-6,6-6s6,2.7,6,6
			c0,0.2,0,0.4,0,0.5c1.5-0.6,3.2-0.7,4.8-0.3c0-0.4-0.1-0.7-0.1-1c0-0.2,0.1-0.4,0.2-0.5l3-2.3c0.1-0.1,0.1-0.2,0-0.3l-2.9-4.8
			c-0.1-0.1-0.2-0.1-0.3-0.1l-3.6,1.4c-0.2,0.1-0.3,0-0.5-0.1c-0.7-0.5-1.5-1-2.3-1.3c-0.2-0.1-0.3-0.2-0.3-0.4l-0.5-3.7
			c0-0.1-0.1-0.2-0.2-0.2h-5.8c-0.1,0-0.2,0.1-0.2,0.2l-0.5,3.7c0,0.2-0.1,0.3-0.3,0.4C9.8,5.6,9,6,8.2,6.6C8.1,6.7,7.9,6.7,7.8,6.6
			L4.2,5.2c-0.1,0-0.2,0-0.3,0.1L1,10.2c-0.1,0.1,0,0.2,0,0.2l3,2.3c0.1,0.1,0.2,0.3,0.2,0.5c-0.1,0.5-0.1,0.9-0.1,1.3
			s0,0.8,0.1,1.3c0,0.2-0.1,0.4-0.2,0.5l-3,2.3C1,18.6,1,18.7,1,18.8l2.9,4.8c0.1,0.1,0.2,0.1,0.3,0.1l3.6-1.4
			C7.8,22.3,7.9,22.3,7.9,22.3z"/>
	</g>
</g>
</svg>
