<?xml version="1.0" encoding="utf-8"?>
<!-- Generator: Adobe Illustrator 19.0.0, SVG Export Plug-In . SVG Version: 6.00 Build 0)  -->
<svg version="1.1" id="Layer_1" xmlns="http://www.w3.org/2000/svg" xmlns:xlink="http://www.w3.org/1999/xlink" x="0px" y="0px"
	 viewBox="0 0 30 30" style="enable-background:new 0 0 30 30;" xml:space="preserve">
<g>
	<g>
		<path d="M26.5,24.5H3.5c-1.7,0-3-1.4-3-3.1V3.6c0-1.7,1.4-3.1,3-3.1h22.9c1.7,0,3,1.4,3,3.1v17.9C29.5,23.1,28.1,24.5,26.5,24.5z
			 M3.5,1.5c-1.1,0-2,0.9-2,2.1v17.9c0,1.1,0.9,2.1,2,2.1h22.9c1.1,0,2-0.9,2-2.1V3.6c0-1.1-0.9-2.1-2-2.1H3.5z"/>
	</g>
	<g>
		<path d="M24,29.5H6c-0.3,0-0.5-0.2-0.5-0.5c0-1.4,1.4-2.5,3.1-2.5h12.9c1.7,0,3.1,1.1,3.1,2.5C24.5,29.3,24.3,29.5,24,29.5z
			 M6.6,28.5h16.8c-0.3-0.6-1.1-1-2-1H8.6C7.7,27.5,6.9,27.9,6.6,28.5z"/>
	</g>
	<g>
		<path d="M29,20.5H1.5C1.2,20.5,1,20.3,1,20s0.2-0.5,0.5-0.5H29c0.3,0,0.5,0.2,0.5,0.5S29.3,20.5,29,20.5z"/>
	</g>
	<g>
		<path d="M11,16.5c-0.2,0-0.4-0.1-0.5-0.4L7.6,5.5H6C5.7,5.5,5.5,5.3,5.5,5S5.7,4.5,6,4.5h2c0.2,0,0.4,0.2,0.5,0.4l3,11
			c0.1,0.3-0.1,0.5-0.4,0.6C11.1,16.5,11,16.5,11,16.5z"/>
	</g>
	<g>
		<path d="M10.3,13.4c-0.3,0-0.5-0.2-0.5-0.4c0-0.3,0.2-0.5,0.4-0.5l10.6-1.1l0.6-3.8H9C8.7,7.5,8.5,7.3,8.5,7S8.7,6.5,9,6.5h13
			c0.1,0,0.3,0.1,0.4,0.2c0.1,0.1,0.1,0.3,0.1,0.4l-0.7,4.8c0,0.2-0.2,0.4-0.4,0.4L10.3,13.4C10.4,13.4,10.4,13.4,10.3,13.4z"/>
	</g>
	<g>
		<path d="M13,18.5c-0.8,0-1.5-0.7-1.5-1.5s0.7-1.5,1.5-1.5s1.5,0.7,1.5,1.5S13.8,18.5,13,18.5z M13,16.5c-0.3,0-0.5,0.2-0.5,0.5
			s0.2,0.5,0.5,0.5s0.5-0.2,0.5-0.5S13.3,16.5,13,16.5z"/>
	</g>
	<g>
		<path d="M18,18.5c-0.8,0-1.5-0.7-1.5-1.5s0.7-1.5,1.5-1.5s1.5,0.7,1.5,1.5S18.8,18.5,18,18.5z M18,16.5c-0.3,0-0.5,0.2-0.5,0.5
			s0.2,0.5,0.5,0.5s0.5-0.2,0.5-0.5S18.3,16.5,18,16.5z"/>
	</g>
	<g>
		<path d="M17,27.5c-0.3,0-0.5-0.2-0.5-0.5v-3c0-0.3,0.2-0.5,0.5-0.5s0.5,0.2,0.5,0.5v3C17.5,27.3,17.3,27.5,17,27.5z"/>
	</g>
	<g>
		<path d="M13,27.5c-0.3,0-0.5-0.2-0.5-0.5v-2.5c0-0.3,0.2-0.5,0.5-0.5s0.5,0.2,0.5,0.5V27C13.5,27.3,13.3,27.5,13,27.5z"/>
	</g>
</g>
</svg>
