<?xml version="1.0" encoding="utf-8"?>
<!-- Generator: Adobe Illustrator 19.0.0, SVG Export Plug-In . SVG Version: 6.00 Build 0)  -->
<svg version="1.1" id="Layer_1" xmlns="http://www.w3.org/2000/svg" xmlns:xlink="http://www.w3.org/1999/xlink" x="0px" y="0px"
	 viewBox="0 0 30 30" style="enable-background:new 0 0 30 30;" xml:space="preserve">
<g>
	<g>
		<path d="M26.5,19h-11c-0.3,0-0.5-0.2-0.5-0.5s0.2-0.5,0.5-0.5h11c1.1,0,2.5-0.9,2.5-2V8c0-1.1-0.9-2-2-2H12c-1.1,0-2,0.9-2,2v3.5
			c0,0.3-0.2,0.5-0.5,0.5S9,11.8,9,11.5V8c0-1.7,1.3-3,3-3h15c1.7,0,3,1.3,3,3v8C30,17.7,28.1,19,26.5,19z"/>
	</g>
	<g>
		<path d="M13.5,9h-1C12.2,9,12,8.8,12,8.5S12.2,8,12.5,8h1C13.8,8,14,8.2,14,8.5S13.8,9,13.5,9z"/>
	</g>
	<g>
		<path d="M17.5,9h-1C16.2,9,16,8.8,16,8.5S16.2,8,16.5,8h1C17.8,8,18,8.2,18,8.5S17.8,9,17.5,9z"/>
	</g>
	<g>
		<path d="M21.5,9h-1C20.2,9,20,8.8,20,8.5S20.2,8,20.5,8h1C21.8,8,22,8.2,22,8.5S21.8,9,21.5,9z"/>
	</g>
	<g>
		<path d="M25.5,9h-1C24.2,9,24,8.8,24,8.5S24.2,8,24.5,8h1C25.8,8,26,8.2,26,8.5S25.8,9,25.5,9z"/>
	</g>
	<g>
		<g>
			<path d="M12.9,25c-0.2,0-0.4,0-0.6-0.1l-8-1.5C4.1,23.4,4,23.2,4,22.9l1-5.5c0,0,0-0.1,0-0.1C5.9,15.7,7.8,15,9.3,15l2.9-2.9
				c1-1,2-1.2,2.7-0.5c0.7,0.7,0.9,1.5,0.6,2.1l-2,3c-0.7,0.9-0.9,1.5-0.9,1.7c0,0.5,0.3,1.1,0.7,1.5c0.5,0.4,1.1,0.6,1.7,0.5
				l2.5-0.5l4.1,0c0.2,0,0.4,0.2,0.5,0.4c0.1,0.2,0,0.4-0.2,0.6l-5,3C16.2,24.4,14.1,25,12.9,25z M5.1,22.6l7.5,1.4
				c0.8,0.2,3.2-0.5,3.6-0.9c0,0,0.1-0.1,0.1-0.1l3.5-2.1h-2.2l-2.4,0.5c-0.9,0.1-1.8-0.1-2.5-0.8c-0.7-0.6-1.1-1.4-1.1-2.2
				c0-0.5,0.4-1.3,1.1-2.3l2-3c0.1-0.2-0.1-0.5-0.4-0.9c-0.4-0.4-1.3,0.5-1.3,0.5l-3,3C9.8,15.9,9.6,16,9.5,16
				c-1.3,0-2.9,0.5-3.5,1.7L5.1,22.6z"/>
		</g>
		<g>
			<path d="M0.5,25C0.2,25,0,24.8,0,24.5v-9c0-0.1,0.1-0.3,0.1-0.4C0.2,15.1,0.4,15,0.5,15c0.7,0,4.3,0.1,5.3,1.1
				C6,16.2,6,16.4,6,16.5c-0.3,3.2-1,6.5-1,6.6c0,0.1-0.1,0.2-0.2,0.3C4.7,23.5,2.2,25,0.5,25z M1,16v7.9c1-0.2,2.4-0.9,3.1-1.3
				c0.2-0.7,0.7-3.4,0.9-6C4.2,16.3,2.4,16.1,1,16z"/>
		</g>
	</g>
	<g>
		<g>
			<path d="M22.5,16c-1.4,0-2.5-1.1-2.5-2.5s1.1-2.5,2.5-2.5c0.4,0,0.9,0.1,1.3,0.3c0.2,0.1,0.2,0.3,0.2,0.4s-0.1,0.3-0.2,0.4
				c-0.5,0.3-0.8,0.8-0.8,1.3s0.3,1,0.8,1.3c0.2,0.1,0.2,0.3,0.2,0.4s-0.1,0.3-0.2,0.4C23.4,15.9,22.9,16,22.5,16z M22.5,12
				c-0.8,0-1.5,0.7-1.5,1.5s0.7,1.5,1.5,1.5c0,0,0,0,0,0c-0.3-0.4-0.5-1-0.5-1.5S22.2,12.4,22.5,12C22.5,12,22.5,12,22.5,12z"/>
		</g>
		<g>
			<g>
				<path d="M24.5,16c-1.4,0-2.5-1.1-2.5-2.5s1.1-2.5,2.5-2.5s2.5,1.1,2.5,2.5S25.9,16,24.5,16z M24.5,12c-0.8,0-1.5,0.7-1.5,1.5
					s0.7,1.5,1.5,1.5s1.5-0.7,1.5-1.5S25.3,12,24.5,12z"/>
			</g>
		</g>
	</g>
</g>
</svg>
