<?xml version="1.0" encoding="utf-8"?>
<!-- Generator: Adobe Illustrator 19.0.0, SVG Export Plug-In . SVG Version: 6.00 Build 0)  -->
<svg version="1.1" id="Layer_1" xmlns="http://www.w3.org/2000/svg" xmlns:xlink="http://www.w3.org/1999/xlink" x="0px" y="0px"
	 viewBox="0 0 30 30" style="enable-background:new 0 0 30 30;" xml:space="preserve">
<g>
	<g>
		<path d="M26.5,25h-23C3.2,25,3,24.8,3,24.5S3.2,24,3.5,24h23c0.3,0,0.5,0.2,0.5,0.5S26.8,25,26.5,25z"/>
	</g>
	<g>
		<path d="M23.5,12c-0.3,0-0.5-0.2-0.5-0.5v-7C23,2.7,21.3,1,19.5,1H10C8.1,1,7,2.8,7,4.5v7C7,11.8,6.8,12,6.5,12S6,11.8,6,11.5v-7
			C6,2,7.8,0,10,0h9.5C21.9,0,24,2.1,24,4.5v7C24,11.8,23.8,12,23.5,12z"/>
	</g>
	<g>
		<path d="M20.5,8h-11C9.2,8,9,7.8,9,7.5S9.2,7,9.5,7h11C20.8,7,21,7.2,21,7.5S20.8,8,20.5,8z"/>
	</g>
	<g>
		<path d="M29.5,30h-29C0.2,30,0,29.8,0,29.5v-22C0,7.2,0.2,7,0.5,7h4C4.8,7,5,7.2,5,7.5S4.8,8,4.5,8H1v21h28V8h-3.5
			C25.2,8,25,7.8,25,7.5S25.2,7,25.5,7h4C29.8,7,30,7.2,30,7.5v22C30,29.8,29.8,30,29.5,30z"/>
	</g>
</g>
</svg>
