<?xml version="1.0" encoding="utf-8"?>
<!-- Generator: Adobe Illustrator 19.0.0, SVG Export Plug-In . SVG Version: 6.00 Build 0)  -->
<svg version="1.1" id="Layer_1" xmlns="http://www.w3.org/2000/svg" xmlns:xlink="http://www.w3.org/1999/xlink" x="0px" y="0px"
	 viewBox="0 0 30 30" style="enable-background:new 0 0 30 30;" xml:space="preserve">
<g>
	<g>
		<path d="M22,10c-0.1,0-0.3,0-0.4-0.1l-2-2c-0.2-0.2-0.2-0.5,0-0.7s0.5-0.2,0.7,0L22,8.8l4.6-4.6c0.2-0.2,0.5-0.2,0.7,0
			s0.2,0.5,0,0.7l-5,5C22.3,10,22.1,10,22,10z"/>
	</g>
	<g>
		<path d="M26,22H11.8c-2.1,0-4.1-1.5-4.5-3.4L4.9,3H1C0.7,3,0.5,2.8,0.5,2.5S0.7,2,1,2h4.3c0.2,0,0.5,0.2,0.5,0.4l2.5,16
			c0.3,1.4,1.9,2.6,3.5,2.6H26c0.3,0,0.5,0.2,0.5,0.5S26.3,22,26,22z"/>
	</g>
	<g>
		<path d="M11,30c-1.9,0-3.5-1.6-3.5-3.5S9.1,23,11,23s3.5,1.6,3.5,3.5S12.9,30,11,30z M11,24c-1.4,0-2.5,1.1-2.5,2.5S9.6,29,11,29
			s2.5-1.1,2.5-2.5S12.4,24,11,24z"/>
	</g>
	<g>
		<path d="M23,30c-1.9,0-3.5-1.6-3.5-3.5S21.1,23,23,23s3.5,1.6,3.5,3.5S24.9,30,23,30z M23,24c-1.4,0-2.5,1.1-2.5,2.5
			S21.6,29,23,29s2.5-1.1,2.5-2.5S24.4,24,23,24z"/>
	</g>
	<g>
		<path d="M23,13c-3.6,0-6.5-2.9-6.5-6.5S19.4,0,23,0s6.5,2.9,6.5,6.5S26.6,13,23,13z M23,1c-3,0-5.5,2.5-5.5,5.5S20,12,23,12
			s5.5-2.5,5.5-5.5S26,1,23,1z"/>
	</g>
	<g>
		<path d="M25,17H7.5C7.2,17,7,16.8,7,16.5S7.2,16,7.5,16H25c0.8,0,1.9-0.4,2-1.5l0.3-1.7c0.1-0.3,0.3-0.5,0.6-0.4
			c0.3,0.1,0.5,0.3,0.4,0.6L28,14.7C27.8,16,26.6,17,25,17z"/>
	</g>
	<g>
		<path d="M15,7H6C5.7,7,5.5,6.8,5.5,6.5S5.7,6,6,6h9c0.3,0,0.5,0.2,0.5,0.5S15.3,7,15,7z"/>
	</g>
</g>
</svg>
